4D 54 68 64 00 00 00 06 00 01 00 02 03 C0 4D 54 72 6B 00 00 00 56 00 FF 58 04 04 02 18 08 00 FF 59 02 FE 01 00 FF 03 07 55 6E 72 61 76 65 6C 00 FF 01 13 41 72 72 61 6E 67 65 64 20 62 79 20 41 6E 69 6D 65 6E 7A 00 FF 02 0C 43 6F 70 79 72 69 67 68 74 20 A9 20 9A 20 FF 51 03 06 D5 11 9E DD 60 FF 58 04 06 02 48 08 01 FF 2F 00 4D 54 72 6B 00 00 71 98 9A 20 B0 00 00 00 B0 20 00 00 C0 00 00 B0 79 00 00 B0 40 00 00 B0 5B 30 00 B0 0A 33 00 B0 07 64 00 90 5E 3F 00 B0 79 00 00 B0 40 00 00 B0 5B 30 00 B0 0A 33 00 B0 07 64 00 FF 03 07 4B 6C 61 76 69 65 72 83 60 80 5E 00 00 90 60 4E 00 90 4F 3F 87 40 80 60 00 00 90 5E 46 87 40 80 5E 00 00 90 5D 4B 83 60 80 5D 00 00 90 5B 45 83 60 80 4F 00 00 90 52 50 83 60 80 5B 00 00 90 60 59 83 60 80 52 00 00 90 4B 3F 83 60 80 60 00 00 90 5E 4B 87 40 80 5E 00 00 90 5D 45 87 40 80 5D 00 00 90 5B 48 83 60 80 4B 00 00 90 4F 50 83 60 80 5B 00 00 90 5B 4B 83 60 80 5B 00 00 90 59 45 00 80 4F 00 00 90 4D 43 8B 20 80 59 00 00 90 57 47 83 60 80 57 00 00 90 57 4D 85 50 80 57 00 00 90 59 52 81 70 80 4D 00 00 90 51 4F 83 60 80 59 00 00 90 56 48 83 60 80 51 00 00 90 4F 4C 96 40 80 56 00 00 80 4F 00 83 60 90 4A 44 00 90 56 44 83 60 80 4A 00 00 80 56 00 00 90 4A 4B 00 90 52 4B 00 90 56 4B 00 90 33 41 83 60 80 33 00 00 90 3A 50 83 60 80 4A 00 00 80 52 00 00 80 56 00 00 90 4A 4E 00 90 56 4E 00 80 3A 00 00 90 43 5F 83 60 80 4A 00 00 80 56 00 00 90 4A 4D 00 90 52 4D 00 90 56 4D 00 80 43 00 00 90 33 44 83 60 80 33 00 00 90 3A 56 83 60 80 4A 00 00 80 52 00 00 80 56 00 00 90 56 62 00 90 62 62 00 80 3A 00 00 90 41 59 83 60 80 56 00 00 80 62 00 00 90 56 4F 00 90 5E 4F 00 90 62 4F 00 80 41 00 00 90 46 54 83 60 80 46 00 00 90 4A 58 83 60 80 4A 00 00 90 37 41 83 60 90 54 47 00 80 37 00 00 90 3E 5B 83 60 80 54 00 00 90 56 4E 00 80 3E 00 00 90 46 5F 83 60 80 56 00 00 80 46 00 00 90 37 48 83 60 90 54 42 00 80 37 00 00 90 3E 57 83 60 80 54 00 00 90 56 54 00 80 3E 00 00 90 46 5C 83 60 80 56 00 00 80 5E 00 00 80 62 00 00 80 56 00 00 80 46 00 00 90 37 47 83 60 90 52 46 00 90 5E 46 00 80 37 00 00 90 3E 5C 83 60 80 52 00 00 80 5E 00 00 90 51 49 00 90 54 49 00 90 5D 49 00 80 3E 00 00 90 35 42 83 60 80 35 00 00 90 3C 58 83 60 80 51 00 00 80 54 00 00 80 5D 00 00 90 51 4B 00 90 5D 4B 00 80 3C 00 00 90 45 60 83 60 80 51 00 00 80 5D 00 00 90 51 4C 00 90 54 4C 00 90 5D 4C 00 80 45 00 00 90 35 45 83 60 80 35 00 00 90 3C 59 83 60 80 51 00 00 80 54 00 00 80 5D 00 00 90 52 50 00 90 5E 50 00 80 3C 00 00 90 41 56 83 60 80 52 00 00 80 5E 00 00 90 52 4F 00 90 5E 4F 00 80 41 00 00 90 46 57 83 60 80 46 00 00 90 48 55 83 60 80 48 00 00 90 37 42 83 60 90 51 44 00 80 37 00 00 90 3E 58 83 60 80 51 00 00 90 52 53 00 80 3E 00 00 90 43 5B 83 60 80 52 00 00 80 43 00 00 90 37 44 83 60 90 51 45 00 80 37 00 00 90 3E 56 83 60 80 51 00 00 90 52 4F 00 80 3E 00 00 90 43 54 83 60 80 52 00 00 80 5E 00 00 80 52 00 00 80 43 00 00 90 37 44 83 60 90 5E 47 00 80 37 00 00 90 3E 55 83 60 80 5E 00 00 90 60 53 00 80 3E 00 00 90 33 45 83 60 90 54 45 00 80 33 00 00 90 3A 51 83 60 80 60 00 00 80 54 00 00 90 5E 46 00 90 56 4F 00 80 3A 00 00 90 43 60 83 60 80 56 00 00 90 52 45 00 80 43 00 00 90 33 42 83 60 80 5E 00 00 80 52 00 00 90 5D 4A 00 90 51 48 00 80 33 00 00 90 3A 4C 83 60 80 5D 00 00 80 51 00 00 90 5B 48 00 90 52 4E 00 80 3A 00 00 90 43 5E 83 60 80 52 00 00 90 4F 43 00 80 43 00 00 90 33 41 83 60 80 5B 00 00 90 60 57 00 80 33 00 00 90 3A 4F 83 60 80 4F 00 00 90 54 53 00 80 3A 00 00 90 37 4B 83 60 80 60 00 00 80 54 00 00 90 5E 4E 00 90 56 51 00 80 37 00 00 90 3E 59 83 60 80 56 00 00 90 52 47 00 80 3E 00 00 90 46 5C 83 60 80 5E 00 00 80 52 00 00 90 5D 4C 00 90 51 47 00 80 46 00 00 90 37 43 83 60 80 51 00 00 90 52 4F 00 80 37 00 00 90 3E 5B 83 60 80 5D 00 00 80 52 00 00 90 5B 45 00 90 4F 45 00 80 3E 00 00 90 46 5C 83 60 80 46 00 00 90 37 42 83 60 80 5B 00 00 80 4F 00 00 90 5B 4D 00 80 37 00 00 90 3E 5D 83 60 80 5B 00 00 90 59 48 00 90 51 3E 00 80 3E 00 00 90 35 46 83 60 80 51 00 00 90 52 4A 00 80 35 00 00 90 3C 57 83 60 80 52 00 00 90 4D 46 00 80 3C 00 00 90 45 5D 83 60 80 59 00 00 80 4D 00 00 90 57 46 00 80 45 00 00 90 35 47 83 60 80 57 00 00 90 57 49 00 90 51 45 00 80 35 00 00 90 3C 5A 83 60 80 3C 00 00 90 45 5D 81 70 80 57 00 00 80 51 00 00 90 59 51 00 90 52 52 81 70 80 45 00 00 90 35 44 83 60 80 59 00 00 80 52 00 00 90 56 45 00 90 4D 42 00 80 35 00 00 90 3C 55 83 60 80 4D 00 00 80 3C 00 00 90 37 4B 83 60 90 51 45 00 80 37 00 00 90 3E 59 83 60 80 51 00 00 90 52 4F 00 80 3E 00 00 90 46 61 83 60 80 52 00 00 80 46 00 00 90 37 43 83 60 90 51 45 00 80 37 00 00 90 3E 57 83 60 80 51 00 00 90 52 49 00 80 3E 00 00 90 46 5E 83 60 80 56 00 00 80 52 00 00 80 46 00 00 90 37 44 83 60 90 4A 45 00 90 56 45 00 80 37 00 00 90 3E 58 83 60 80 4A 00 00 80 56 00 00 90 4A 46 00 90 52 46 00 90 56 46 00 80 3E 00 00 90 33 47 83 60 80 33 00 00 90 3A 4F 83 60 80 4A 00 00 80 52 00 00 80 56 00 00 90 4A 50 00 90 56 50 00 80 3A 00 00 90 43 5C 83 60 80 4A 00 00 80 56 00 00 90 4A 4F 00 90 52 4F 00 90 56 4F 00 80 43 00 00 90 33 41 83 60 80 33 00 00 90 3A 51 83 60 80 4A 00 00 80 52 00 00 80 56 00 00 90 56 61 00 90 62 61 00 80 3A 00 00 90 43 5E 83 60 80 56 00 00 80 62 00 00 90 56 4F 00 90 5E 4F 00 90 62 4F 00 80 43 00 00 90 33 42 83 60 80 33 00 00 90 3A 53 83 60 90 4D 42 00 80 3A 00 00 90 37 49 83 60 80 4D 00 00 90 54 57 00 80 37 00 00 90 3E 5A 83 60 80 54 00 00 90 56 4E 00 80 3E 00 00 90 46 59 83 60 80 56 00 00 90 4D 3A 00 80 46 00 00 90 37 45 83 60 80 4D 00 00 90 54 54 00 80 37 00 00 90 3E 59 83 60 80 54 00 00 90 56 55 00 80 3E 00 00 90 46 5D 83 60 80 56 00 00 80 5E 00 00 80 62 00 00 80 56 00 00 90 4D 3E 00 80 46 00 00 90 37 46 83 60 80 4D 00 00 90 52 41 00 90 5E 41 00 80 37 00 00 90 3E 59 83 60 80 52 00 00 80 5E 00 00 90 51 49 00 90 54 49 00 90 5D 49 00 80 3E 00 00 90 35 45 83 60 80 35 00 00 90 3C 57 83 60 80 51 00 00 80 54 00 00 80 5D 00 00 90 51 4C 00 90 5D 4C 00 80 3C 00 00 90 45 5C 83 60 80 51 00 00 80 5D 00 00 90 51 4E 00 90 54 4E 00 90 5D 4E 00 80 45 00 00 90 35 43 83 60 80 35 00 00 90 3C 5B 83 60 80 51 00 00 80 54 00 00 80 5D 00 00 90 52 53 00 90 5E 53 00 80 3C 00 00 90 45 60 83 60 80 52 00 00 80 5E 00 00 90 52 4E 00 90 5E 4E 00 80 45 00 00 90 35 46 83 60 80 35 00 00 90 35 51 83 60 80 52 00 00 80 5E 00 00 90 3E 37 00 90 43 37 00 80 35 00 00 90 37 4E 81 70 80 37 00 00 90 37 4B 81 70 80 37 00 00 90 37 50 81 70 80 3E 00 00 80 43 00 00 90 3E 47 00 90 43 47 00 80 37 00 81 70 90 37 47 81 70 80 37 00 00 90 37 4D 81 70 80 3E 00 00 80 43 00 00 90 3E 4F 00 90 43 4F 00 80 37 00 81 70 90 37 42 81 70 80 3E 00 00 80 43 00 00 90 3E 4C 00 90 43 4C 00 80 37 00 81 70 90 37 48 81 70 80 37 00 00 90 37 4B 81 70 80 3E 00 00 80 43 00 00 90 3E 4B 00 90 43 4B 00 80 37 00 81 70 80 3E 00 00 80 43 00 00 90 3E 4E 00 90 43 4E 81 70 90 37 41 81 70 80 37 00 00 90 37 4D 83 60 90 56 62 00 90 46 65 81 70 80 56 00 00 90 4A 3E 00 80 46 00 00 90 43 4B 81 70 80 4A 00 00 90 4F 57 00 80 43 00 00 90 45 56 81 70 80 4F 00 00 90 54 59 00 80 45 00 00 90 46 4D 81 70 80 54 00 00 90 4A 3D 00 80 46 00 00 90 43 4A 81 70 80 4A 00 00 90 4F 57 00 80 43 00 00 90 45 54 81 70 80 4F 00 00 90 52 53 00 80 45 00 00 90 46 52 81 70 80 52 00 00 90 4A 41 00 80 46 00 00 90 43 48 81 70 80 4A 00 00 90 56 62 00 80 43 00 00 90 46 56 81 70 80 56 00 00 90 4A 39 00 80 46 00 00 90 43 47 81 70 80 4A 00 00 90 4F 57 00 80 43 00 00 90 45 4B 81 70 80 4F 00 00 90 54 59 00 80 45 00 00 90 46 56 81 70 80 54 00 00 90 4A 3B 00 80 46 00 00 90 43 43 81 70 80 4A 00 00 90 4F 52 00 80 43 00 00 90 45 50 81 70 80 4F 00 00 90 52 50 00 80 45 00 00 90 46 50 83 60 80 3E 00 00 80 43 00 00 80 52 00 00 90 39 35 00 90 3A 35 00 90 3E 35 00 90 43 35 00 80 37 00 00 80 46 00 00 90 2B 4C 00 90 32 4C 00 90 37 4C 81 70 80 2B 00 00 80 32 00 00 80 37 00 00 90 2B 49 00 90 32 49 00 90 37 49 81 70 80 2B 00 00 80 32 00 00 80 37 00 00 90 2B 4E 00 90 32 4E 00 90 37 4E 81 70 80 39 00 00 80 3A 00 00 80 3E 00 00 80 43 00 00 90 39 47 00 90 3A 47 00 90 3E 47 00 90 43 47 00 80 2B 00 00 80 32 00 00 80 37 00 81 70 90 2B 42 00 90 32 42 00 90 37 42 81 70 80 2B 00 00 80 32 00 00 80 37 00 00 90 2B 4A 00 90 32 4A 00 90 37 4A 81 70 80 39 00 00 80 3A 00 00 80 3E 00 00 80 43 00 00 90 39 4B 00 90 3A 4B 00 90 3E 4B 00 90 43 4B 00 80 2B 00 00 80 32 00 00 80 37 00 81 70 90 2B 47 00 90 32 47 00 90 37 47 81 70 80 39 00 00 80 3A 00 00 80 3E 00 00 80 43 00 00 90 39 4C 00 90 3A 4C 00 90 3E 4C 00 90 43 4C 00 80 2B 00 00 80 32 00 00 80 37 00 81 70 90 2B 43 00 90 32 43 00 90 37 43 81 70 80 2B 00 00 80 32 00 00 80 37 00 00 90 2B 4A 00 90 32 4A 00 90 37 4A 81 70 80 39 00 00 80 3A 00 00 80 3E 00 00 80 43 00 00 90 39 4C 00 90 3A 4C 00 90 3E 4C 00 90 43 4C 00 80 2B 00 00 80 32 00 00 80 37 00 81 70 80 39 00 00 80 3A 00 00 80 3E 00 00 80 43 00 00 90 39 4E 00 90 3A 4E 00 90 3E 4E 00 90 43 4E 81 70 90 2B 48 00 90 32 48 00 90 37 48 81 70 80 2B 00 00 80 32 00 00 80 37 00 00 90 2B 50 00 90 32 50 00 90 37 50 83 60 80 39 00 00 80 3A 00 00 80 3E 00 00 80 43 00 00 90 4A 63 00 90 56 63 00 80 2B 00 00 80 32 00 00 80 37 00 00 90 1F 43 00 90 2B 43 81 70 80 4A 00 00 80 56 00 00 90 52 69 00 90 5E 69 81 70 90 37 43 81 70 80 52 00 00 80 5E 00 00 90 4A 3E 00 90 56 3E 00 80 37 00 00 90 3A 65 00 90 3E 65 00 90 43 65 81 70 80 4A 00 00 80 56 00 00 90 4F 5E 00 90 5B 5E 81 70 80 4F 00 00 80 5B 00 00 90 56 46 81 70 80 56 00 00 90 52 43 00 80 3A 00 00 80 3E 00 00 80 43 00 00 90 2B 42 81 70 80 52 00 00 90 4F 45 00 80 2B 00 00 90 32 56 00 90 37 56 81 70 80 4F 00 00 80 1F 00 00 80 2B 00 00 80 32 00 00 80 37 00 00 90 29 50 00 90 35 50 81 70 80 29 00 00 80 35 00 00 90 29 4E 00 90 35 4E 81 70 90 3E 48 00 90 46 48 00 90 4A 48 81 70 90 35 44 00 90 3C 44 81 70 80 3E 00 00 80 46 00 00 80 4A 00 00 90 3C 4B 00 90 46 4B 00 90 48 4B 00 80 35 00 00 80 35 00 00 80 3C 00 81 70 90 35 46 00 90 3C 46 81 70 80 3C 00 00 80 46 00 00 80 48 00 00 90 3E 54 00 90 46 54 00 90 4A 54 00 80 35 00 00 80 3C 00 81 70 80 29 00 00 90 29 52 00 90 35 52 81 70 80 3E 00 00 80 46 00 00 80 4A 00 00 90 4A 64 00 90 56 64 00 80 29 00 00 80 35 00 00 90 27 49 00 90 33 49 81 70 80 4A 00 00 80 56 00 00 90 52 6E 00 90 5E 6E 81 70 90 37 44 81 70 80 52 00 00 80 5E 00 00 90 4A 3F 00 90 56 3F 00 80 37 00 00 90 3A 60 00 90 3F 60 00 90 43 60 81 70 80 4A 00 00 80 56 00 00 90 4F 5B 00 90 5B 5B 81 70 80 4F 00 00 80 5B 00 00 90 56 43 81 70 80 56 00 00 90 52 3C 00 80 3A 00 00 80 3F 00 00 80 43 00 00 90 27 42 81 70 80 52 00 00 90 4F 47 00 80 27 00 00 90 2E 57 00 90 33 57 81 70 80 4F 00 00 80 27 00 00 80 33 00 00 80 2E 00 00 80 33 00 00 90 26 46 00 90 32 46 81 70 80 26 00 00 80 32 00 00 90 26 4C 00 90 32 4C 81 70 90 3E 42 00 90 42 42 00 90 45 42 00 90 4A 42 81 70 90 39 48 00 90 3E 48 81 70 80 3E 00 00 80 42 00 00 80 45 00 00 80 4A 00 00 90 46 5A 00 90 4A 5A 00 90 52 5A 00 80 32 00 00 80 39 00 00 80 3E 00 81 70 90 39 43 00 90 3E 43 81 70 80 46 00 00 80 4A 00 00 80 52 00 00 90 45 49 00 90 4A 49 00 90 51 49 00 80 39 00 00 80 3E 00 81 70 80 26 00 00 90 26 54 00 90 32 54 81 70 80 45 00 00 80 4A 00 00 80 51 00 00 90 4A 59 00 90 56 59 00 80 26 00 00 80 32 00 00 90 1F 47 00 90 2B 47 81 70 80 4A 00 00 80 56 00 00 90 52 63 00 90 5E 63 81 70 90 37 45 81 70 80 52 00 00 80 5E 00 00 90 4A 3F 00 90 56 3F 00 80 37 00 00 90 3A 5E 00 90 3E 5E 00 90 43 5E 81 70 80 4A 00 00 80 56 00 00 90 4F 5C 00 90 5B 5C 81 70 80 4F 00 00 80 5B 00 00 90 56 44 81 70 80 56 00 00 90 52 43 00 80 3A 00 00 80 3E 00 00 80 43 00 00 90 2B 41 81 70 80 52 00 00 90 4F 48 00 80 2B 00 00 90 32 55 00 90 37 55 81 70 80 4F 00 00 80 1F 00 00 80 2B 00 00 80 32 00 00 80 37 00 00 90 29 54 00 90 35 54 81 70 80 29 00 00 80 35 00 00 90 29 51 00 90 35 51 81 70 90 3E 44 00 90 46 44 00 90 4A 44 81 70 90 35 42 00 90 3C 42 81 70 80 3E 00 00 80 46 00 00 80 4A 00 00 90 3C 46 00 90 46 46 00 90 48 46 00 80 35 00 00 80 35 00 00 80 3C 00 81 70 90 35 44 00 90 3C 44 81 70 80 3C 00 00 80 46 00 00 80 48 00 00 90 3E 50 00 90 46 50 00 90 4A 50 00 80 35 00 00 80 3C 00 81 70 80 29 00 00 90 29 53 00 90 35 53 81 70 80 3E 00 00 80 46 00 00 80 4A 00 00 90 4A 61 00 90 56 61 00 80 29 00 00 80 35 00 00 90 27 4D 00 90 33 4D 81 70 80 4A 00 00 80 56 00 00 90 52 69 00 90 5E 69 81 70 90 37 48 81 70 80 52 00 00 80 5E 00 00 90 4A 41 00 90 56 41 00 80 37 00 00 90 3A 5C 00 90 3F 5C 00 90 43 5C 81 70 80 4A 00 00 80 56 00 00 90 4F 5A 00 90 5B 5A 81 70 80 4F 00 00 80 5B 00 00 90 56 41 81 70 80 56 00 00 90 52 43 00 80 3A 00 00 80 3F 00 00 80 43 00 00 90 27 41 81 70 80 52 00 00 90 4F 45 00 80 27 00 00 90 2E 57 00 90 33 57 81 70 80 4F 00 00 80 27 00 00 80 33 00 00 80 2E 00 00 80 33 00 00 90 26 47 00 90 32 47 81 70 80 26 00 00 80 32 00 00 90 26 50 00 90 32 50 81 70 90 3E 3F 00 90 42 3F 00 90 45 3F 00 90 4A 3F 81 70 90 39 45 00 90 3E 45 81 70 80 3E 00 00 80 42 00 00 80 45 00 00 80 4A 00 00 90 46 59 00 90 4A 59 00 90 52 59 00 80 32 00 00 80 39 00 00 80 3E 00 81 70 90 39 46 00 90 3E 46 81 70 80 46 00 00 80 4A 00 00 80 52 00 00 90 45 4A 00 90 4A 4A 00 90 51 4A 00 80 39 00 00 80 3E 00 81 70 80 26 00 00 90 26 53 00 90 32 53 81 70 80 45 00 00 80 4A 00 00 80 51 00 00 90 43 3A 00 90 46 3A 00 80 26 00 00 80 32 00 00 90 2B 51 00 90 37 51 00 90 3E 45 81 70 80 3E 00 00 90 37 4D 00 90 3E 4D 81 70 80 37 00 00 80 3E 00 81 70 80 43 00 00 80 46 00 00 90 43 42 00 90 37 47 00 90 3E 47 81 70 80 2B 00 00 80 37 00 00 80 37 00 00 80 3E 00 00 90 37 49 00 90 3E 49 81 70 80 43 00 00 80 37 00 00 80 3E 00 81 70 90 48 40 00 90 37 44 00 90 3E 44 81 70 80 37 00 00 80 3E 00 81 70 80 48 00 00 90 43 45 00 90 46 45 00 90 37 46 00 90 3E 46 81 70 80 37 00 00 80 3E 00 00 90 37 4E 00 90 3E 4E 81 70 80 37 00 00 80 3E 00 81 70 80 43 00 00 80 46 00 00 90 43 42 00 90 37 44 00 90 3E 44 81 70 80 37 00 00 80 3E 00 00 90 37 4A 00 90 3E 4A 81 70 80 43 00 00 80 37 00 00 80 3E 00 81 70 90 48 45 00 90 51 41 00 90 37 45 00 90 3E 45 81 70 80 37 00 00 80 3E 00 81 70 80 48 00 00 80 51 00 00 90 52 5F 00 90 45 3F 00 90 46 3F 00 90 4A 3F 00 90 37 44 00 90 3E 44 85 50 80 52 00 00 90 52 4B 85 50 80 45 00 00 80 46 00 00 80 4A 00 00 80 52 00 00 90 52 4E 00 90 45 45 00 90 46 45 00 90 4A 45 87 40 80 45 00 00 80 46 00 00 80 4A 00 00 90 43 3F 83 60 80 52 00 00 80 43 00 00 90 52 4D 00 90 46 5A 00 90 4A 5A 83 60 80 52 00 00 90 56 55 83 60 80 46 00 00 80 4A 00 00 80 56 00 00 90 56 4C 00 90 4A 5B 00 90 4B 5B 00 90 4F 5B 00 80 37 00 00 80 3E 00 00 90 33 49 00 90 3A 49 85 50 80 56 00 00 90 54 4C 85 50 80 4A 00 00 80 4B 00 00 80 4F 00 00 80 54 00 00 90 54 48 00 90 46 4E 00 90 4A 4E 00 90 4B 4E 00 90 4F 4E 87 40 80 46 00 00 80 4A 00 00 80 4B 00 00 80 4F 00 00 90 3F 39 83 60 80 3F 00 00 90 43 56 00 90 46 56 83 60 80 54 00 00 90 52 4C 83 60 80 43 00 00 80 46 00 00 80 52 00 00 90 54 4C 00 90 48 5B 00 90 4D 5B 00 80 33 00 00 80 3A 00 00 90 35 4D 00 90 3C 4D 85 50 80 54 00 00 90 52 4C 85 50 80 48 00 00 80 4D 00 00 80 52 00 00 90 51 4A 00 90 46 4C 00 90 48 4C 00 90 4D 4C 87 40 80 51 00 00 80 46 00 00 80 48 00 00 80 4D 00 00 90 4D 46 00 90 41 38 83 60 80 41 00 00 90 46 56 00 90 48 56 83 60 80 4D 00 00 90 4A 43 83 60 80 46 00 00 80 48 00 00 90 41 48 00 90 45 48 00 90 46 48 00 80 35 00 00 80 3C 00 00 90 3A 4E 8B 20 80 41 00 00 80 45 00 00 80 46 00 00 90 41 4D 00 90 45 4D 00 90 46 4D 8B 20 80 4A 00 00 80 41 00 00 80 45 00 00 80 46 00 00 80 3A 00 00 90 39 4D 83 60 90 51 41 83 60 80 51 00 00 90 52 4E 00 90 45 43 00 90 46 43 00 90 4A 43 00 80 39 00 00 90 37 58 00 90 3E 58 83 60 80 52 00 00 90 52 4C 81 70 80 52 00 00 90 52 4B 85 50 80 45 00 00 80 46 00 00 80 4A 00 00 90 45 49 00 90 46 49 00 90 4A 49 87 40 80 52 00 00 80 45 00 00 80 46 00 00 80 4A 00 00 90 52 4B 00 90 43 3D 83 60 80 43 00 00 90 46 5B 00 90 4A 5B 83 60 80 52 00 00 90 56 52 83 60 80 46 00 00 80 4A 00 00 80 56 00 00 90 56 4B 00 90 4A 59 00 90 4B 59 00 90 4F 59 00 80 37 00 00 80 3E 00 00 90 33 4A 00 90 3A 4A 85 50 80 56 00 00 90 54 4E 85 50 80 4A 00 00 80 4B 00 00 80 4F 00 00 80 54 00 00 90 54 50 00 90 46 50 00 90 4A 50 00 90 4B 50 00 90 4F 50 87 40 80 54 00 00 80 46 00 00 80 4A 00 00 80 4B 00 00 80 4F 00 00 90 52 49 00 90 3F 3B 83 60 80 3F 00 00 90 43 59 00 90 46 59 87 40 80 52 00 00 80 43 00 00 80 46 00 00 90 56 56 00 90 4A 64 00 90 4D 64 00 90 52 64 00 80 33 00 00 80 3A 00 00 90 35 52 00 90 3C 52 87 40 80 56 00 00 90 54 4C 83 60 80 4A 00 00 80 4D 00 00 80 52 00 00 80 54 00 00 90 54 51 00 90 45 48 00 90 48 48 00 90 4A 48 00 90 4D 48 87 40 80 45 00 00 80 48 00 00 80 4A 00 00 80 4D 00 00 90 41 3A 83 60 80 54 00 00 80 41 00 00 90 51 45 00 90 45 53 00 90 48 53 83 60 80 51 00 00 90 52 4D 83 60 80 45 00 00 80 48 00 00 90 46 56 00 90 4A 56 00 80 35 00 00 80 3C 00 00 90 3A 59 00 90 41 59 8B 20 80 52 00 00 90 3E 37 83 60 80 46 00 00 80 4A 00 00 80 3E 00 00 90 3C 40 87 40 80 3C 00 00 80 3A 00 00 80 41 00 00 90 39 4D 83 60 90 41 41 83 60 80 41 00 00 90 41 4B 00 80 39 00 00 90 2B 47 81 70 90 37 45 81 70 80 41 00 00 90 3E 46 00 80 37 00 00 90 35 47 81 70 80 3E 00 00 90 3E 49 00 80 35 00 00 90 37 4F 81 70 80 3E 00 00 80 2B 00 00 80 37 00 00 90 32 48 81 70 80 32 00 00 90 35 4C 81 70 90 3E 42 00 90 45 45 00 80 35 00 00 90 37 4B 81 70 80 37 00 00 90 39 4F 81 70 80 3E 00 00 80 45 00 00 90 3C 46 00 90 46 4D 00 80 39 00 00 90 3A 4B 81 70 80 3A 00 00 90 37 4B 81 70 80 3C 00 00 80 46 00 00 90 3E 53 00 90 45 48 00 80 37 00 00 90 35 4D 81 70 80 3E 00 00 80 45 00 00 90 3E 4C 00 90 45 4F 00 80 35 00 00 90 37 51 81 70 80 3E 00 00 80 45 00 00 80 37 00 00 90 32 47 81 70 80 32 00 00 90 37 55 81 70 90 41 45 00 80 37 00 00 90 35 48 81 70 80 35 00 00 90 37 54 81 70 80 41 00 00 90 41 47 00 80 37 00 00 90 2B 44 81 70 90 37 4C 81 70 80 41 00 00 90 3E 49 00 80 37 00 00 90 35 49 81 70 80 3E 00 00 90 3E 4A 00 80 35 00 00 90 37 4F 81 70 80 3E 00 00 80 2B 00 00 80 37 00 00 90 32 48 81 70 80 32 00 00 90 35 4B 81 70 90 3E 46 00 90 45 41 00 80 35 00 00 90 37 4E 81 70 80 37 00 00 90 39 4F 81 70 80 3E 00 00 80 45 00 00 90 3C 46 00 90 46 50 00 80 39 00 00 90 3A 4C 81 70 80 3A 00 00 90 37 4A 81 70 80 3C 00 00 80 46 00 00 90 3E 52 00 90 45 48 00 80 37 00 00 90 35 49 81 70 80 3E 00 00 80 45 00 00 90 3E 4B 00 90 45 4D 00 80 35 00 00 90 37 4F 81 70 80 3E 00 00 80 45 00 00 80 37 00 00 90 32 45 81 70 80 32 00 00 90 37 53 81 70 90 41 44 00 80 37 00 00 90 35 49 81 70 80 35 00 00 90 37 4E 81 70 80 41 00 00 90 41 4A 00 80 37 00 00 90 2B 43 81 70 90 37 42 81 70 80 41 00 00 90 3E 46 00 80 37 00 00 90 35 4F 81 70 80 3E 00 00 90 3E 4C 00 80 35 00 00 90 37 53 81 70 80 3E 00 00 80 2B 00 00 80 37 00 00 90 32 48 81 70 80 32 00 00 90 35 4B 81 70 90 3E 44 00 90 41 3F 00 90 45 3F 00 90 4A 3F 00 80 35 00 00 90 37 4C 81 70 80 37 00 00 90 39 49 81 70 80 3E 00 00 80 41 00 00 80 45 00 00 80 4A 00 00 90 3C 41 00 90 41 45 00 90 46 45 00 90 48 45 00 80 39 00 00 90 3A 4E 83 60 80 3C 00 00 80 41 00 00 80 46 00 00 80 48 00 00 80 3A 00 81 70 90 3E 48 00 90 41 42 00 90 45 42 00 90 4A 42 00 90 2B 44 00 90 37 44 83 60 80 3E 00 00 80 41 00 00 80 45 00 00 80 4A 00 00 80 2B 00 00 80 37 00 81 70 90 3E 42 00 90 41 42 00 90 45 42 00 90 4A 42 00 90 2B 3F 00 90 37 3F 8B 20 80 3E 00 00 80 41 00 00 80 45 00 00 80 4A 00 00 80 2B 00 00 80 37 00 83 60 90 37 45 81 1E 90 3E 52 81 21 90 41 5A 81 21 90 4A 41 00 90 4D 41 00 90 52 41 00 90 56 41 00 90 46 6A 87 40 80 4A 00 00 80 4D 00 00 80 52 00 00 80 56 00 00 90 48 44 00 90 4D 44 00 90 51 44 00 90 54 44 00 80 37 00 00 80 3E 00 00 80 41 00 00 80 46 00 00 90 29 43 00 90 35 43 87 40 80 48 00 00 80 4D 00 00 80 51 00 00 80 54 00 00 90 4A 4F 00 90 4F 4F 00 90 52 4F 00 90 56 4F 00 80 29 00 00 80 35 00 00 90 1B 43 00 90 27 43 83 60 90 27 44 81 70 80 4A 00 00 80 4F 00 00 80 52 00 00 80 56 00 00 90 48 47 00 90 4B 47 00 90 4F 47 00 90 54 47 00 80 27 00 00 90 2E 56 00 90 33 56 83 60 80 2E 00 00 80 33 00 00 90 27 41 81 70 80 48 00 00 80 4B 00 00 80 4F 00 00 80 54 00 00 90 48 49 00 90 4B 49 00 90 4F 49 00 90 54 49 00 80 27 00 00 90 2E 57 00 90 33 57 83 60 80 48 00 00 80 4B 00 00 80 4F 00 00 80 54 00 00 90 48 4E 00 90 4B 4E 00 90 4F 4E 00 90 54 4E 00 80 2E 00 00 80 33 00 00 90 3F 61 81 70 80 3F 00 00 90 3A 4C 81 70 80 3A 00 00 90 37 49 81 70 80 48 00 00 80 4B 00 00 80 4F 00 00 80 54 00 00 90 46 4B 00 90 4B 4B 00 90 4F 4B 00 90 52 4B 00 80 37 00 00 90 33 4B 81 70 80 33 00 00 90 2E 48 81 70 80 2E 00 00 90 27 41 81 70 80 46 00 00 80 4B 00 00 80 4F 00 00 80 52 00 00 90 45 48 00 90 48 48 00 90 4D 48 00 90 51 48 00 80 27 00 00 90 1B 40 83 60 80 1B 00 00 80 27 00 00 80 1B 00 00 90 1D 4D 00 90 29 4D 83 60 80 45 00 00 80 48 00 00 80 4D 00 00 80 51 00 00 90 46 51 00 90 4A 51 00 90 4D 51 00 90 52 51 00 90 29 40 81 70 80 29 00 00 90 30 4F 00 90 35 4F 83 60 80 30 00 00 80 35 00 00 90 29 3F 81 70 80 46 00 00 80 4A 00 00 80 4D 00 00 80 52 00 00 90 45 4F 00 90 48 4F 00 90 4D 4F 00 90 51 4F 00 80 29 00 00 90 30 53 00 90 35 53 83 60 80 30 00 00 80 35 00 00 90 41 61 81 70 80 41 00 00 90 3C 46 81 70 80 45 00 00 80 48 00 00 80 4D 00 00 80 51 00 00 90 45 46 00 90 48 46 00 90 4D 46 00 80 3C 00 00 90 39 47 81 70 80 39 00 00 90 35 46 81 70 80 35 00 00 90 30 45 81 70 80 30 00 00 90 29 46 81 70 80 29 00 00 90 1D 3E 83 60 80 45 00 00 80 48 00 00 80 4D 00 00 90 4A 5C 00 90 4F 5C 00 90 52 5C 00 90 56 5C 00 80 1D 00 00 80 29 00 00 80 1D 00 00 90 1F 4E 00 90 2B 4E 83 60 90 2B 45 81 70 80 4A 00 00 80 4F 00 00 80 52 00 00 80 56 00 00 90 48 49 00 90 4D 49 00 90 51 49 00 90 54 49 00 80 2B 00 00 90 32 58 00 90 37 58 83 60 80 32 00 00 80 37 00 00 90 2B 44 81 70 80 48 00 00 80 4D 00 00 80 51 00 00 80 54 00 00 90 48 50 00 90 4D 50 00 90 51 50 00 90 54 50 00 80 2B 00 00 90 32 57 00 90 37 57 83 60 80 32 00 00 80 37 00 00 90 43 60 81 70 80 43 00 00 90 3E 45 81 70 80 48 00 00 80 4D 00 00 80 51 00 00 80 54 00 00 90 46 49 00 90 4A 49 00 90 4F 49 00 90 52 49 00 80 3E 00 00 90 3A 47 81 70 80 3A 00 00 90 37 47 81 70 80 37 00 00 90 32 47 81 70 80 32 00 00 90 2B 48 81 70 80 46 00 00 80 4A 00 00 80 4F 00 00 80 52 00 00 90 46 4D 00 90 52 4D 00 80 2B 00 00 90 1F 43 83 60 80 46 00 00 80 52 00 00 90 45 4B 00 90 4A 4B 00 90 4D 4B 00 90 51 4B 00 80 1F 00 00 80 2B 00 00 80 1F 00 00 90 1A 47 00 90 26 47 83 60 90 26 45 81 70 80 45 00 00 80 4A 00 00 80 4D 00 00 80 51 00 00 90 46 50 00 90 4A 50 00 90 4D 50 00 90 52 50 00 80 26 00 00 90 2D 56 00 90 32 56 83 60 80 2D 00 00 80 32 00 00 90 26 40 81 70 80 46 00 00 80 4A 00 00 80 4D 00 00 80 52 00 00 90 4D 5B 00 90 51 5B 00 90 56 5B 00 90 59 5B 00 80 26 00 00 90 2D 56 00 90 32 56 83 60 80 2D 00 00 80 32 00 00 90 3E 62 81 70 80 3E 00 00 90 39 4B 81 70 80 4D 00 00 80 51 00 00 80 56 00 00 80 59 00 00 90 45 3D 00 90 4A 3D 00 90 4D 3D 00 90 51 3D 00 80 39 00 00 90 35 4A 81 70 80 35 00 00 90 32 49 81 70 80 32 00 00 90 2D 49 81 70 80 2D 00 00 90 26 47 81 70 80 45 00 00 80 4A 00 00 80 4D 00 00 80 51 00 00 90 46 4E 00 90 52 4E 00 80 26 00 00 90 1A 42 83 60 80 46 00 00 80 52 00 00 90 4F 59 00 90 52 59 00 90 57 59 00 90 5B 59 00 80 1A 00 00 80 26 00 00 80 1A 00 00 90 1B 4A 00 90 27 4A 83 60 90 27 46 81 70 80 4F 00 00 80 52 00 00 80 57 00 00 80 5B 00 00 90 4D 4C 00 90 52 4C 00 90 56 4C 00 90 59 4C 00 80 27 00 00 90 2E 54 00 90 33 54 83 60 80 2E 00 00 80 33 00 00 90 27 43 81 70 80 4D 00 00 80 52 00 00 80 56 00 00 80 59 00 00 90 4A 48 00 90 4D 48 00 90 52 48 00 90 56 48 00 80 27 00 00 90 2E 5A 00 90 33 5A 83 60 80 2E 00 00 80 33 00 00 90 3F 63 81 70 80 3F 00 00 90 3A 4C 81 70 80 4A 00 00 80 4D 00 00 80 52 00 00 80 56 00 00 90 46 44 00 90 4A 44 00 90 4D 44 00 90 52 44 00 80 3A 00 00 90 37 48 81 70 80 37 00 00 90 33 49 81 70 80 33 00 00 90 2E 45 81 70 80 2E 00 00 90 27 47 81 70 80 46 00 00 80 4A 00 00 80 4D 00 00 80 52 00 00 90 46 4C 00 90 52 4C 00 80 27 00 00 90 1B 44 83 60 80 46 00 00 80 52 00 00 90 46 45 00 90 48 45 00 90 4D 45 00 90 52 45 00 80 1B 00 00 80 27 00 00 80 1B 00 00 90 1D 53 00 90 29 53 83 60 90 29 49 81 70 80 29 00 00 90 30 59 00 90 35 59 81 70 80 46 00 00 80 48 00 00 80 4D 00 00 80 52 00 00 90 45 49 00 90 51 49 81 70 80 30 00 00 80 35 00 00 90 29 48 81 70 80 45 00 00 80 51 00 00 90 43 46 00 90 48 46 00 90 4D 46 00 90 4F 46 00 80 29 00 00 90 30 54 00 90 35 54 83 60 80 30 00 00 80 35 00 00 90 41 63 81 70 80 41 00 00 90 3C 45 81 70 80 43 00 00 80 48 00 00 80 4D 00 00 80 4F 00 00 90 45 50 00 90 51 50 00 80 3C 00 00 90 39 45 81 70 80 39 00 00 90 35 47 81 70 80 35 00 00 90 30 47 81 70 80 30 00 00 90 29 41 81 70 80 45 00 00 80 51 00 00 90 46 5A 00 90 4A 5A 00 90 4F 5A 00 90 52 5A 00 80 29 00 00 90 1D 44 83 60 80 1D 00 00 80 29 00 00 80 1D 00 00 90 1F 50 00 90 2B 50 83 60 90 2B 43 81 70 80 2B 00 00 90 32 57 00 90 37 57 83 60 80 32 00 00 80 37 00 00 90 2B 43 81 70 80 2B 00 00 90 32 56 00 90 37 56 83 60 80 32 00 00 80 37 00 00 90 43 66 81 70 80 43 00 00 90 3E 49 81 70 80 3E 00 00 90 3A 4A 81 70 80 3A 00 00 90 37 49 81 70 80 46 00 00 80 4A 00 00 80 4F 00 00 80 52 00 00 80 37 00 00 90 32 47 81 70 80 32 00 00 90 2B 43 81 70 90 46 43 00 80 2B 00 00 90 1F 44 83 60 80 46 00 00 90 45 44 00 80 1F 00 00 80 2B 00 00 80 1F 00 00 90 26 53 00 90 32 53 81 70 90 41 44 81 70 80 41 00 00 90 3E 46 00 90 32 44 81 70 80 45 00 00 80 3E 00 00 90 46 4F 00 80 32 00 00 90 39 4E 81 70 90 41 41 81 70 80 41 00 00 90 3E 43 00 80 39 00 00 90 32 44 81 70 80 46 00 00 80 3E 00 00 90 45 4C 00 80 32 00 00 90 39 51 81 70 90 41 49 81 70 80 41 00 00 80 39 00 00 90 3E 57 81 70 80 3E 00 00 90 39 4A 81 70 80 45 00 00 90 41 3E 00 80 39 00 00 90 35 46 81 70 80 35 00 00 90 32 47 81 70 80 32 00 00 90 2D 47 81 70 80 2D 00 00 90 29 47 81 70 80 41 00 00 90 3E 5B 00 90 4A 5B 00 80 29 00 00 90 26 4A 83 60 80 3E 00 00 80 4A 00 00 90 4A 5F 00 90 4F 5F 00 90 52 5F 00 90 56 5F 00 80 26 00 00 80 32 00 00 80 26 00 00 90 27 40 81 70 80 27 00 00 90 33 54 81 70 80 4A 00 00 80 4F 00 00 80 52 00 00 80 56 00 00 90 48 4F 00 90 54 4F 00 80 33 00 00 90 2E 48 81 70 80 48 00 00 80 54 00 00 90 48 4B 00 90 4B 4B 00 90 4F 4B 00 90 54 4B 00 80 2E 00 00 90 27 41 81 70 80 27 00 00 90 1B 44 81 70 80 1B 00 00 90 27 55 81 70 80 48 00 00 80 4B 00 00 80 4F 00 00 80 54 00 00 90 48 49 00 90 54 49 00 80 27 00 00 90 2E 51 81 70 80 2E 00 00 90 33 52 81 70 80 48 00 00 80 54 00 00 90 48 50 00 90 4B 50 00 90 4F 50 00 90 54 50 00 80 33 00 00 90 27 41 81 70 80 27 00 00 90 33 58 81 70 80 48 00 00 80 4B 00 00 80 4F 00 00 80 54 00 00 90 46 47 00 90 52 47 00 80 33 00 00 90 2E 48 81 70 80 46 00 00 80 52 00 00 90 46 49 00 90 4B 49 00 90 4F 49 00 90 52 49 00 80 2E 00 00 90 27 48 81 70 80 27 00 00 90 1B 43 81 70 80 1B 00 00 90 27 53 81 70 80 46 00 00 80 4B 00 00 80 4F 00 00 80 52 00 00 90 46 4D 00 90 52 4D 00 80 27 00 00 90 2E 55 81 70 80 2E 00 00 90 33 52 81 70 80 46 00 00 80 52 00 00 90 45 45 00 90 48 45 00 90 4D 45 00 90 51 45 00 80 33 00 00 90 29 44 81 70 80 29 00 00 90 35 52 81 70 80 35 00 00 90 30 4A 81 70 80 45 00 00 80 48 00 00 80 4D 00 00 80 51 00 00 90 46 4F 00 90 52 4F 00 80 30 00 00 90 29 42 81 70 80 29 00 00 90 1D 40 81 70 80 1D 00 00 90 29 51 81 70 80 46 00 00 80 52 00 00 90 45 44 00 90 48 44 00 90 4D 44 00 90 51 44 00 80 29 00 00 90 30 5B 81 70 80 30 00 00 90 35 54 81 70 80 35 00 00 90 29 45 81 70 80 29 00 00 90 35 54 81 70 80 45 00 00 80 48 00 00 80 4D 00 00 80 51 00 00 90 41 42 00 90 45 42 00 90 48 42 00 90 4D 42 00 80 35 00 00 90 30 49 81 70 80 30 00 00 90 29 44 81 70 80 29 00 00 90 1D 3E 81 70 80 1D 00 00 90 29 57 81 70 80 41 00 00 80 45 00 00 80 48 00 00 80 4D 00 00 90 3E 45 00 90 4A 45 00 80 29 00 00 90 30 53 81 70 80 30 00 00 90 35 4F 81 70 80 3E 00 00 80 4A 00 00 90 4A 62 00 90 4F 62 00 90 52 62 00 90 56 62 00 80 35 00 00 90 2B 45 81 70 80 2B 00 00 90 37 57 81 70 80 4A 00 00 80 4F 00 00 80 52 00 00 80 56 00 00 90 48 4D 00 90 54 4D 00 80 37 00 00 90 32 49 81 70 80 48 00 00 80 54 00 00 90 48 48 00 90 4D 48 00 90 51 48 00 90 54 48 00 80 32 00 00 90 2B 47 81 70 80 2B 00 00 90 1F 41 81 70 80 1F 00 00 90 2B 57 81 70 80 48 00 00 80 4D 00 00 80 51 00 00 80 54 00 00 90 48 4B 00 90 54 4B 00 80 2B 00 00 90 32 58 81 70 80 32 00 00 90 37 50 81 70 80 48 00 00 80 54 00 00 90 48 4C 00 90 4D 4C 00 90 51 4C 00 90 54 4C 00 80 37 00 00 90 2B 43 81 70 80 2B 00 00 90 37 52 81 70 80 48 00 00 80 4D 00 00 80 51 00 00 80 54 00 00 90 46 43 00 90 52 43 00 80 37 00 00 90 32 45 81 70 80 46 00 00 80 52 00 00 90 46 4B 00 90 4A 4B 00 90 4F 4B 00 90 52 4B 00 80 32 00 00 90 2B 43 81 70 80 2B 00 00 90 1F 43 81 70 80 1F 00 00 90 2B 55 81 70 80 46 00 00 80 4A 00 00 80 4F 00 00 80 52 00 00 90 46 4C 00 90 52 4C 00 80 2B 00 00 90 32 56 81 70 80 32 00 00 90 37 53 81 70 80 46 00 00 80 52 00 00 90 45 48 00 90 4A 48 00 90 4D 48 00 90 51 48 00 80 37 00 00 90 26 3F 81 70 80 26 00 00 90 32 59 81 70 80 32 00 00 90 2D 49 81 70 80 45 00 00 80 4A 00 00 80 4D 00 00 80 51 00 00 90 46 4D 00 90 52 4D 00 80 2D 00 00 90 26 46 81 70 80 26 00 00 90 1A 43 81 70 80 1A 00 00 90 26 55 81 70 80 46 00 00 80 52 00 00 90 4D 5C 00 90 51 5C 00 90 56 5C 00 90 59 5C 00 80 26 00 00 90 2D 55 81 70 80 2D 00 00 90 32 51 81 70 80 32 00 00 90 26 3F 81 70 80 26 00 00 90 32 52 81 70 80 4D 00 00 80 51 00 00 80 56 00 00 80 59 00 00 90 45 41 00 90 4A 41 00 90 4D 41 00 90 51 41 00 80 32 00 00 90 2D 48 81 70 80 2D 00 00 90 26 45 81 70 80 26 00 00 90 1A 42 81 70 80 1A 00 00 90 26 52 81 70 80 45 00 00 80 4A 00 00 80 4D 00 00 80 51 00 00 90 46 4D 00 90 52 4D 00 80 26 00 00 90 2D 51 81 70 80 2D 00 00 90 32 52 81 70 80 46 00 00 80 52 00 00 90 4F 5F 00 90 52 5F 00 90 57 5F 00 90 5B 5F 00 80 32 00 00 90 1B 46 81 70 80 1B 00 00 90 27 55 81 70 80 27 00 00 90 1B 47 81 70 80 4F 00 00 80 52 00 00 80 57 00 00 80 5B 00 00 90 4D 4A 00 90 52 4A 00 90 56 4A 00 90 59 4A 00 80 1B 00 00 90 27 56 81 70 80 27 00 00 90 2E 56 81 70 80 2E 00 00 90 33 50 81 70 80 4D 00 00 80 52 00 00 80 56 00 00 80 59 00 00 90 4A 40 00 90 56 40 00 80 33 00 00 90 3A 53 81 70 80 3A 00 00 90 3F 58 81 70 80 4A 00 00 80 56 00 00 90 46 40 00 90 4A 40 00 90 4D 40 00 90 52 40 00 80 3F 00 00 90 43 5A 81 70 80 43 00 00 90 3F 49 81 70 80 3F 00 00 90 3A 41 81 70 80 3A 00 00 90 33 42 81 70 80 33 00 00 90 27 40 83 60 80 46 00 00 80 4A 00 00 80 4D 00 00 80 52 00 00 90 46 47 00 90 52 47 83 60 80 46 00 00 80 52 00 00 90 46 47 00 90 48 47 00 90 4D 47 00 90 52 47 00 80 27 00 00 90 1D 50 00 90 29 50 87 40 80 46 00 00 80 48 00 00 80 4D 00 00 80 52 00 00 90 45 49 00 90 51 49 83 60 80 45 00 00 80 51 00 00 90 43 47 00 90 48 47 00 90 4D 47 00 90 4F 47 00 80 1D 00 00 80 29 00 00 90 39 66 00 90 3C 66 00 90 41 66 87 40 80 43 00 00 80 48 00 00 80 4D 00 00 80 4F 00 00 90 45 4C 00 90 51 4C 83 60 80 39 00 00 80 3C 00 00 80 41 00 00 90 29 44 00 90 35 44 83 60 80 45 00 00 80 51 00 00 90 46 53 00 90 4A 53 00 90 4F 53 00 90 52 53 83 60 80 29 00 00 80 35 00 00 90 27 4B 00 90 33 4B 81 70 90 3E 46 81 70 80 3E 00 00 90 43 52 81 70 80 43 00 00 90 3E 41 00 90 33 44 81 70 80 3E 00 00 90 43 5B 81 70 80 43 00 00 90 3E 40 81 70 80 3E 00 00 90 43 58 00 80 33 00 00 90 33 49 81 70 80 43 00 00 90 3E 3F 81 70 80 3E 00 00 90 4A 69 00 80 33 00 00 90 37 5B 00 90 3A 5B 81 70 80 4A 00 00 90 3E 39 81 70 80 3E 00 00 90 43 56 81 70 80 43 00 00 90 46 55 81 70 80 46 00 00 90 3E 3E 81 70 80 3E 00 00 90 43 57 81 70 80 43 00 00 90 46 55 81 70 80 46 00 00 90 3E 3C 81 70 80 46 00 00 80 4A 00 00 80 4F 00 00 80 52 00 00 80 3E 00 00 90 4A 47 00 80 27 00 00 80 33 00 00 80 37 00 00 80 3A 00 00 90 2B 50 00 90 37 50 81 70 80 4A 00 00 90 3E 38 81 70 80 3E 00 00 90 41 4F 81 70 80 41 00 00 90 46 55 00 90 37 42 81 70 80 46 00 00 90 3E 40 81 70 80 3E 00 00 90 41 51 81 70 80 41 00 00 90 46 57 00 80 37 00 00 90 37 4B 81 70 80 46 00 00 90 3E 41 81 70 80 3E 00 00 90 4A 6B 00 80 37 00 00 90 3A 5B 00 90 3E 5B 81 70 80 4A 00 00 90 3E 3C 81 70 80 3E 00 00 90 41 53 81 70 80 41 00 00 90 46 55 81 70 80 46 00 00 90 3E 40 81 70 80 3E 00 00 90 41 4F 81 70 80 41 00 00 90 46 56 81 70 80 46 00 00 90 3E 3E 81 70 80 3E 00 00 90 48 61 00 80 2B 00 00 80 37 00 00 80 3A 00 00 80 3E 00 00 90 29 4A 00 90 35 4A 81 70 80 48 00 00 90 3C 38 81 70 80 3C 00 00 90 41 53 81 70 80 41 00 00 90 46 55 00 90 35 45 81 70 80 46 00 00 90 3C 3F 81 70 80 3C 00 00 90 41 58 81 70 80 41 00 00 90 46 57 00 80 35 00 00 90 35 4A 81 70 80 46 00 00 90 3C 3C 81 70 80 3C 00 00 90 48 68 00 80 35 00 00 90 39 5B 00 90 3C 5B 81 70 80 48 00 00 90 3C 3C 81 70 80 3C 00 00 90 41 52 81 70 80 41 00 00 90 46 57 81 70 80 46 00 00 90 3C 38 81 70 80 3C 00 00 90 41 55 81 70 80 41 00 00 90 52 40 00 90 46 58 83 60 80 52 00 00 80 46 00 00 90 56 56 00 80 29 00 00 80 35 00 00 80 39 00 00 80 3C 00 00 90 2B 4E 00 90 37 4E 81 70 90 4D 3D 81 70 80 4D 00 00 90 4A 44 81 70 80 56 00 00 80 4A 00 00 90 54 43 00 90 37 41 81 70 90 4D 3C 81 70 80 4D 00 00 90 4A 43 81 70 80 54 00 00 80 4A 00 00 90 54 4A 00 80 37 00 00 90 37 49 81 70 90 4D 3F 81 70 80 4D 00 00 90 4A 4A 00 80 37 00 00 90 3A 56 00 90 3E 56 81 70 80 4A 00 00 90 4D 50 81 70 80 54 00 00 80 4D 00 00 90 51 45 81 70 90 4D 46 81 70 80 4D 00 00 90 4A 45 81 70 80 4A 00 00 90 4D 56 81 70 80 51 00 00 80 4D 00 00 90 52 51 81 70 90 4F 47 81 70 80 4F 00 00 90 4A 44 00 80 2B 00 00 80 37 00 00 80 3A 00 00 80 3E 00 00 90 27 49 00 90 33 49 81 70 80 4A 00 00 90 4F 56 81 70 80 4F 00 00 90 4A 44 81 70 80 4A 00 00 90 4F 51 00 90 33 42 81 70 80 4F 00 00 90 4A 42 81 70 80 4A 00 00 90 4F 53 81 70 80 4F 00 00 90 4A 46 00 80 33 00 00 90 33 4D 81 70 80 4A 00 00 90 4F 58 81 70 80 4F 00 00 90 56 65 00 80 33 00 00 90 3A 5E 00 90 43 5E 81 70 80 56 00 00 90 4A 3C 81 70 80 4A 00 00 90 4F 56 81 70 80 4F 00 00 90 52 53 81 70 80 52 00 00 90 4A 3E 81 70 80 4A 00 00 90 4F 52 81 70 80 4F 00 00 90 52 55 81 70 80 52 00 00 90 4A 3F 81 70 80 52 00 00 80 4A 00 00 90 56 5E 00 80 27 00 00 80 33 00 00 80 3A 00 00 80 43 00 00 90 2B 50 00 90 37 50 81 70 80 56 00 00 90 4A 35 81 70 80 4A 00 00 90 4D 4B 81 70 80 4D 00 00 90 52 55 00 90 37 47 81 70 80 52 00 00 90 4A 3C 81 70 80 4A 00 00 90 4D 50 81 70 80 4D 00 00 90 52 56 00 80 37 00 00 90 37 4B 81 70 80 52 00 00 90 4A 3C 81 70 80 4A 00 00 90 56 6D 00 80 37 00 00 90 3E 61 00 90 46 61 81 70 80 56 00 00 90 4A 3A 81 70 80 4A 00 00 90 4D 50 81 70 80 4D 00 00 90 52 53 81 70 80 52 00 00 90 4A 40 81 70 80 4A 00 00 90 4D 50 81 70 80 4D 00 00 90 52 59 81 70 80 52 00 00 90 4A 42 81 70 80 4A 00 00 90 54 64 00 80 2B 00 00 80 37 00 00 80 3E 00 00 80 46 00 00 90 29 49 00 90 35 49 81 70 80 54 00 00 90 48 3F 81 70 80 48 00 00 90 4D 54 81 70 80 4D 00 00 90 52 5A 00 90 35 40 81 70 80 52 00 00 90 48 3F 81 70 80 48 00 00 90 4D 4F 81 70 80 4D 00 00 90 52 59 00 80 35 00 00 90 35 4B 81 70 80 52 00 00 90 48 3B 81 70 80 48 00 00 90 54 67 00 80 35 00 00 90 3C 61 00 90 45 61 81 70 80 54 00 00 90 48 3B 81 70 80 48 00 00 90 4D 56 81 70 80 4D 00 00 90 52 54 81 70 80 52 00 00 90 48 3A 81 70 80 48 00 00 90 4D 57 81 70 80 4D 00 00 90 52 5A 81 70 80 52 00 00 90 48 40 81 70 80 48 00 00 90 51 4C 00 80 29 00 00 80 35 00 00 80 3C 00 00 80 45 00 00 90 2B 4E 00 90 37 4E 81 70 80 51 00 00 90 4A 3B 81 70 80 4A 00 00 90 46 42 81 70 80 46 00 00 90 4A 4F 00 90 37 44 81 70 80 4A 00 00 90 46 46 81 70 80 46 00 00 90 4A 4E 81 70 80 4A 00 00 90 46 46 00 80 37 00 00 90 37 46 81 70 80 46 00 00 90 4A 58 81 70 80 4A 00 00 90 52 64 00 80 37 00 00 90 43 63 81 70 80 43 00 00 90 45 57 81 70 80 45 00 00 90 46 52 81 70 80 46 00 00 90 4A 57 81 70 80 52 00 00 80 4A 00 00 90 4F 55 83 60 90 52 46 00 90 5E 46 83 60 80 52 00 00 80 5E 00 00 90 54 4F 00 90 60 4F 00 80 2B 00 00 80 37 00 00 80 4F 00 00 90 33 45 81 70 80 33 00 00 90 41 5F 81 70 80 54 00 00 80 60 00 00 90 52 4A 00 90 5E 4A 00 80 41 00 00 90 3F 49 81 70 80 52 00 00 80 5E 00 00 90 54 4D 00 90 60 4D 00 80 3F 00 00 90 41 50 81 70 80 41 00 00 90 3A 43 81 70 80 3A 00 00 90 43 5B 81 70 80 54 00 00 80 60 00 00 90 52 43 00 90 5E 43 00 80 43 00 00 90 45 57 81 70 80 45 00 00 90 46 54 81 70 80 52 00 00 80 5E 00 00 90 54 52 00 90 60 52 00 80 46 00 00 90 4D 59 81 70 80 4D 00 00 90 4A 47 81 70 80 54 00 00 80 60 00 00 90 52 45 00 90 5E 45 00 80 4A 00 00 90 48 42 81 70 80 52 00 00 80 5E 00 00 90 54 51 00 90 60 51 00 80 48 00 00 90 4A 52 81 70 80 4A 00 00 90 3F 36 81 70 80 3F 00 00 90 46 54 81 70 80 54 00 00 80 60 00 00 90 52 49 00 90 5E 49 00 80 46 00 00 90 45 4A 81 70 80 45 00 00 90 46 4F 81 70 80 52 00 00 80 5E 00 00 90 51 4B 00 90 5D 4B 00 80 46 00 00 90 37 40 81 70 80 37 00 00 90 41 5D 81 70 80 51 00 00 80 5D 00 00 90 51 49 00 90 5D 49 00 80 41 00 00 90 3E 49 81 70 80 51 00 00 80 5D 00 00 90 51 4A 00 90 5D 4A 00 80 3E 00 00 90 41 4E 81 70 80 41 00 00 90 3A 46 81 70 80 3A 00 00 90 43 5D 81 70 80 51 00 00 80 5D 00 00 90 51 50 00 90 5D 50 00 80 43 00 00 90 45 53 81 70 80 45 00 00 90 46 51 81 70 80 51 00 00 80 5D 00 00 90 51 4B 00 90 5D 4B 00 80 46 00 00 90 4D 5A 81 70 80 4D 00 00 90 4A 46 81 70 80 51 00 00 80 5D 00 00 90 51 4D 00 90 5D 4D 00 80 4A 00 00 90 48 49 81 70 80 51 00 00 80 5D 00 00 90 51 4B 00 90 5D 4B 00 80 48 00 00 90 4A 53 81 70 80 4A 00 00 90 43 3F 81 70 80 43 00 00 90 46 4F 81 70 80 51 00 00 80 5D 00 00 90 52 4C 00 90 5E 4C 00 80 46 00 00 90 45 47 81 70 80 45 00 00 90 46 4B 81 70 80 52 00 00 80 5E 00 00 90 54 52 00 90 60 52 00 80 46 00 00 90 35 41 81 70 80 35 00 00 90 41 5E 81 70 80 54 00 00 80 60 00 00 90 52 46 00 90 5E 46 00 80 41 00 00 90 3C 42 81 70 80 52 00 00 80 5E 00 00 90 54 4F 00 90 60 4F 00 80 3C 00 00 90 41 56 81 70 80 41 00 00 90 3A 49 81 70 80 3A 00 00 90 41 5A 81 70 80 54 00 00 80 60 00 00 90 52 48 00 90 5E 48 00 80 41 00 00 90 46 56 81 70 80 46 00 00 90 48 56 81 70 80 52 00 00 80 5E 00 00 90 54 51 00 90 60 51 00 80 48 00 00 90 4D 5A 81 70 80 4D 00 00 90 48 40 81 70 80 54 00 00 80 60 00 00 90 52 45 00 90 5E 45 00 80 48 00 00 90 46 49 81 70 80 52 00 00 80 5E 00 00 90 54 55 00 90 60 55 00 80 46 00 00 90 48 54 81 70 80 48 00 00 90 41 41 81 70 80 41 00 00 90 46 52 81 70 80 54 00 00 80 60 00 00 90 52 48 00 90 5E 48 00 80 46 00 00 90 45 48 81 70 80 45 00 00 90 46 52 81 70 80 52 00 00 80 5E 00 00 90 51 47 00 90 5D 47 00 80 46 00 00 90 37 43 81 70 80 37 00 00 90 41 5F 81 70 80 51 00 00 80 5D 00 00 90 51 4B 00 90 5D 4B 00 80 41 00 00 90 3E 42 81 70 80 51 00 00 80 5D 00 00 90 51 49 00 90 5D 49 00 80 3E 00 00 90 41 53 81 70 80 41 00 00 90 3A 46 81 70 80 3A 00 00 90 43 5E 81 70 80 51 00 00 80 5D 00 00 90 51 4B 00 90 5D 4B 00 80 43 00 00 90 45 54 81 70 80 45 00 00 90 46 50 81 70 80 51 00 00 80 5D 00 00 90 51 4D 00 90 5D 4D 00 80 46 00 00 90 4D 5C 81 70 80 4D 00 00 90 4A 47 81 70 80 51 00 00 80 5D 00 00 90 51 4C 00 90 5D 4C 00 80 4A 00 00 90 48 46 81 70 80 51 00 00 80 5D 00 00 90 51 4F 00 90 5D 4F 00 80 48 00 00 90 4A 53 81 70 80 4A 00 00 90 43 3F 81 70 80 43 00 00 90 46 52 81 70 80 51 00 00 80 5D 00 00 90 52 50 00 80 46 00 00 90 45 49 81 70 80 45 00 00 90 46 4B 81 70 80 52 00 00 90 48 50 00 90 4B 50 00 90 4F 50 00 90 54 50 00 80 46 00 00 90 33 42 81 70 80 33 00 00 90 3F 61 81 70 80 48 00 00 80 4B 00 00 80 4F 00 00 80 54 00 00 90 46 46 00 90 52 46 00 80 3F 00 00 90 37 4A 00 90 3A 4A 81 70 80 46 00 00 80 52 00 00 90 48 50 00 90 4B 50 00 90 4F 50 00 90 54 50 00 80 37 00 00 80 3A 00 00 90 33 47 81 70 80 33 00 00 90 27 43 81 70 80 27 00 00 90 33 54 81 70 80 48 00 00 80 4B 00 00 80 4F 00 00 80 54 00 00 90 52 4B 00 90 5E 4B 00 80 33 00 00 90 37 54 00 90 3A 54 81 70 80 37 00 00 80 3A 00 00 90 3F 55 81 70 80 52 00 00 80 5E 00 00 90 54 52 00 90 57 52 00 90 5B 52 00 90 60 52 00 80 3F 00 00 90 33 43 81 70 80 33 00 00 90 3F 5C 81 70 80 54 00 00 80 57 00 00 80 5B 00 00 80 60 00 00 90 52 4B 00 90 5E 4B 00 80 3F 00 00 90 37 48 00 90 3A 48 81 70 80 52 00 00 80 5E 00 00 90 54 4F 00 90 57 4F 00 90 5B 4F 00 90 60 4F 00 80 37 00 00 80 3A 00 00 90 33 49 81 70 80 33 00 00 90 27 41 81 70 80 27 00 00 90 33 57 81 70 80 54 00 00 80 57 00 00 80 5B 00 00 80 60 00 00 90 46 47 00 90 52 47 00 80 33 00 00 90 37 51 00 90 3A 51 81 70 80 37 00 00 80 3A 00 00 90 3F 58 81 70 80 46 00 00 80 52 00 00 90 48 4F 00 90 4D 4F 00 90 54 4F 00 80 3F 00 00 90 37 42 81 70 80 37 00 00 90 43 60 81 70 80 48 00 00 80 4D 00 00 80 54 00 00 90 46 4D 00 90 52 4D 00 80 43 00 00 90 3A 46 00 90 3E 46 81 70 80 46 00 00 80 52 00 00 90 48 4F 00 90 4D 4F 00 90 54 4F 00 80 3A 00 00 80 3E 00 00 90 37 40 81 70 80 37 00 00 90 2B 3D 81 70 80 2B 00 00 90 37 53 81 70 80 48 00 00 80 4D 00 00 80 54 00 00 90 52 4A 00 90 5E 4A 00 80 37 00 00 90 3A 5D 00 90 3E 5D 81 70 80 3A 00 00 80 3E 00 00 90 43 5E 81 70 80 52 00 00 80 5E 00 00 90 54 52 00 90 59 52 00 90 60 52 00 80 43 00 00 90 37 44 81 70 80 37 00 00 90 43 5D 81 70 80 54 00 00 80 59 00 00 80 60 00 00 90 52 4A 00 90 5E 4A 00 80 43 00 00 90 3A 47 00 90 3E 47 81 70 80 52 00 00 80 5E 00 00 90 54 50 00 90 59 50 00 90 60 50 00 80 3A 00 00 80 3E 00 00 90 37 45 81 70 80 37 00 00 90 2B 42 81 70 80 2B 00 00 90 37 55 81 70 80 54 00 00 80 59 00 00 80 60 00 00 90 46 48 00 90 52 48 00 80 37 00 00 90 3A 56 00 90 3E 56 81 70 80 3A 00 00 80 3E 00 00 90 43 58 81 70 80 46 00 00 80 52 00 00 90 48 51 00 90 4D 51 00 90 54 51 00 80 43 00 00 90 35 41 81 70 80 35 00 00 90 41 5C 81 70 80 48 00 00 80 4D 00 00 80 54 00 00 90 46 47 00 90 52 47 00 80 41 00 00 90 39 46 00 90 3C 46 81 70 80 46 00 00 80 52 00 00 90 48 4F 00 90 4D 4F 00 90 54 4F 00 80 39 00 00 80 3C 00 00 90 35 45 81 70 80 35 00 00 90 29 40 81 70 80 29 00 00 90 35 52 81 70 80 48 00 00 80 4D 00 00 80 54 00 00 90 52 4A 00 90 5E 4A 00 80 35 00 00 90 39 5E 00 90 3C 5E 81 70 80 39 00 00 80 3C 00 00 90 41 5D 81 70 80 52 00 00 80 5E 00 00 90 54 52 00 90 59 52 00 90 60 52 00 80 41 00 00 90 35 45 81 70 80 35 00 00 90 41 5C 81 70 80 41 00 00 90 39 45 00 90 3C 45 81 70 80 54 00 00 80 59 00 00 80 60 00 00 90 52 45 00 90 5E 45 00 80 39 00 00 80 3C 00 00 90 35 43 81 70 80 35 00 00 90 29 41 81 70 80 29 00 00 90 35 53 81 70 80 52 00 00 80 5E 00 00 90 54 54 00 90 59 54 00 90 60 54 00 80 35 00 00 90 39 5D 00 90 3C 5D 81 70 80 39 00 00 80 3C 00 00 90 41 51 81 70 80 41 00 00 90 37 47 81 70 80 37 00 00 90 43 5D 81 70 80 54 00 00 80 59 00 00 80 60 00 00 90 52 4C 00 90 5E 4C 00 80 43 00 00 90 3A 47 00 90 3E 47 81 70 80 3A 00 00 80 3E 00 00 90 37 45 81 70 80 37 00 00 90 2B 41 87 40 80 52 00 00 80 5E 00 00 90 4F 70 00 90 51 70 00 90 52 70 00 90 56 70 00 90 5B 70 00 80 2B 00 00 90 37 5C 00 90 3A 5C 00 90 3E 5C 85 50 80 4F 00 00 80 51 00 00 80 52 00 00 80 56 00 00 80 5B 00 00 90 4F 64 00 90 51 64 00 90 52 64 00 90 56 64 00 90 5B 64 00 80 37 00 00 80 3A 00 00 80 3E 00 00 90 37 51 00 90 3A 51 00 90 3E 51 85 50 80 4F 00 00 80 51 00 00 80 52 00 00 80 56 00 00 80 5B 00 00 90 4F 5B 00 90 51 5B 00 90 52 5B 00 90 56 5B 00 90 5B 5B 00 80 37 00 00 80 3A 00 00 80 3E 00 00 90 37 50 00 90 3A 50 00 90 3E 50 83 60 80 37 00 00 80 3A 00 00 80 3E 00 00 90 1B 42 00 90 27 42 82 7F 90 32 45 81 3F 80 32 00 00 90 37 4F 81 12 90 27 44 2D 80 37 00 00 90 39 53 81 43 80 39 00 00 90 3A 4F 81 3F 80 3A 00 00 90 3E 51 81 40 80 3E 00 00 90 43 59 61 80 27 00 00 90 27 49 5E 80 43 00 00 90 45 50 81 3F 80 45 00 00 90 46 52 81 43 80 46 00 00 90 4A 53 00 80 27 00 00 90 2E 55 00 90 33 55 00 90 37 55 81 1E 80 4A 00 00 90 3E 3A 81 21 80 3E 00 00 90 43 56 81 21 80 43 00 00 90 45 52 81 1E 80 45 00 00 90 46 51 52 80 2E 00 00 80 33 00 00 80 37 00 00 90 27 42 4F 80 46 00 00 90 4A 55 81 21 80 4A 00 00 90 4F 42 81 1E 80 4F 00 00 90 51 54 81 21 80 51 00 00 90 52 54 81 21 80 52 00 00 90 56 57 00 80 27 00 00 90 27 4D 81 1E 80 56 00 00 90 5B 58 81 21 80 5B 00 00 90 5D 54 81 21 80 4F 00 00 80 51 00 00 80 52 00 00 80 56 00 00 80 5B 00 00 80 5D 00 00 90 5E 44 00 80 1B 00 00 80 27 00 00 80 27 00 00 90 1D 51 00 90 29 51 81 3F 80 5E 00 00 90 60 4B 81 40 80 60 00 00 90 5E 45 81 3F 80 5E 00 00 90 59 41 81 12 90 29 43 2D 80 59 00 00 90 54 44 81 43 80 54 00 00 90 52 71 81 3F 80 52 00 00 90 54 56 81 40 80 54 00 00 90 52 49 61 80 29 00 00 90 29 48 5E 80 52 00 00 90 4D 43 81 3F 80 4D 00 00 90 48 43 81 43 80 48 00 00 90 51 69 00 80 29 00 00 90 35 5D 00 90 39 5D 00 90 3C 5D 81 3F 80 51 00 00 90 4D 47 81 40 80 4D 00 00 90 48 41 81 3F 80 48 00 00 90 46 49 81 12 80 35 00 00 80 39 00 00 80 3C 00 00 90 29 47 2D 80 46 00 00 90 45 49 81 43 80 45 00 00 90 41 42 81 3F 80 41 00 00 90 3C 42 81 40 80 3C 00 00 90 3A 46 61 80 29 00 00 90 29 4A 5E 80 3A 00 00 90 39 47 81 3F 80 39 00 81 43 90 4A 47 00 90 4F 47 00 90 52 47 00 90 56 47 00 80 1D 00 00 80 29 00 00 80 29 00 00 90 1F 52 00 90 2B 52 82 7F 90 32 3E 81 3F 80 32 00 00 90 37 4F 81 12 90 2B 48 2D 80 37 00 00 90 39 51 81 43 80 39 00 00 90 3A 52 81 3F 80 3A 00 00 90 3E 51 81 40 80 3E 00 00 90 43 59 61 80 2B 00 00 90 2B 4B 5E 80 43 00 00 90 45 53 81 3F 80 45 00 00 90 46 51 81 43 80 46 00 00 90 4A 57 00 80 2B 00 00 90 32 59 00 90 37 59 00 90 3A 59 81 1E 80 4A 00 00 90 3E 38 81 21 80 3E 00 00 90 43 52 81 21 80 43 00 00 90 45 50 81 1E 80 45 00 00 90 46 51 52 80 32 00 00 80 37 00 00 80 3A 00 00 90 2B 40 4F 80 46 00 00 90 4A 54 81 21 80 4A 00 00 90 4F 42 81 1E 80 4F 00 00 90 51 4B 81 21 80 51 00 00 90 52 4F 81 21 80 52 00 00 90 56 56 00 80 2B 00 00 90 2B 4B 81 1E 80 56 00 00 90 5B 57 81 21 80 5B 00 00 90 5D 50 81 21 80 4A 00 00 80 4F 00 00 80 52 00 00 80 56 00 00 80 5D 00 00 90 60 54 00 80 1F 00 00 80 2B 00 00 80 2B 00 00 90 1A 4A 00 90 26 4A 81 3F 80 60 00 00 90 62 50 81 40 80 62 00 00 90 60 4C 81 3F 80 60 00 00 90 5E 4A 81 12 90 26 45 2D 80 5E 00 00 90 59 3E 81 43 80 59 00 00 90 54 69 81 3F 80 54 00 00 90 56 4F 81 40 80 56 00 00 90 54 47 61 80 26 00 00 90 26 48 5E 80 54 00 00 90 52 47 81 3F 80 52 00 00 90 4D 47 81 43 80 4D 00 00 90 54 6A 00 80 26 00 00 90 35 60 00 90 39 60 00 90 3C 60 81 3F 80 54 00 00 90 52 49 81 40 80 52 00 00 90 51 49 81 3F 80 51 00 00 90 4D 44 81 12 80 35 00 00 80 39 00 00 80 3C 00 00 90 26 48 2D 80 4D 00 00 90 48 3C 81 43 80 48 00 00 90 46 42 81 3F 80 46 00 00 90 45 45 81 40 80 45 00 00 90 41 3F 61 80 26 00 00 90 26 4D 5E 80 41 00 00 90 3C 42 81 3F 80 3C 00 81 43 90 4F 46 00 90 51 46 00 90 52 46 00 90 56 46 00 90 5B 46 00 80 1A 00 00 80 26 00 00 80 26 00 00 90 1B 4F 00 90 27 4F 82 7F 90 32 40 81 3F 80 32 00 00 90 37 50 81 12 90 27 46 2D 80 37 00 00 90 39 52 81 43 80 39 00 00 90 3A 51 81 3F 80 3A 00 00 90 3E 52 81 40 80 3E 00 00 90 43 5A 61 80 27 00 00 90 27 4A 5E 80 43 00 00 90 45 54 81 3F 80 45 00 00 90 46 52 81 43 80 46 00 00 90 4A 58 00 80 27 00 00 90 2E 56 00 90 33 56 00 90 37 56 81 1E 80 4A 00 00 90 3E 3B 81 21 80 3E 00 00 90 43 51 81 21 80 43 00 00 90 45 54 81 1E 80 45 00 00 90 46 4F 52 80 2E 00 00 80 33 00 00 80 37 00 00 90 27 3D 4F 80 46 00 00 90 4A 55 81 21 80 4A 00 00 90 4F 41 81 1E 80 4F 00 00 90 51 50 81 21 80 51 00 00 90 52 51 81 21 80 52 00 00 90 56 56 00 80 27 00 00 90 27 4B 81 1E 80 56 00 00 90 5B 58 81 21 80 5B 00 00 90 5D 57 81 21 80 4F 00 00 80 51 00 00 80 52 00 00 80 56 00 00 80 5B 00 00 80 5D 00 00 90 5E 48 00 80 1B 00 00 80 27 00 00 80 27 00 00 90 1D 52 00 90 29 52 81 3F 80 5E 00 00 90 60 50 81 40 80 60 00 00 90 5E 44 81 3F 80 5E 00 00 90 59 42 81 12 90 29 47 2D 80 59 00 00 90 54 45 81 43 80 54 00 00 90 52 6D 81 3F 80 52 00 00 90 54 50 81 40 80 54 00 00 90 52 4A 61 80 29 00 00 90 29 4A 5E 80 52 00 00 90 4D 40 81 3F 80 4D 00 00 90 48 3D 81 43 80 48 00 00 90 51 6F 00 80 29 00 00 90 35 5E 00 90 39 5E 00 90 3C 5E 81 3F 80 51 00 00 90 4D 43 81 40 80 4D 00 00 90 48 3C 81 3F 80 48 00 00 90 46 45 81 12 80 35 00 00 80 39 00 00 80 3C 00 00 90 29 47 2D 80 46 00 00 90 45 4B 81 43 80 45 00 00 90 41 42 81 3F 80 41 00 00 90 3C 3E 81 40 80 3C 00 00 90 3A 4B 61 80 29 00 00 90 29 4C 5E 80 3A 00 00 90 39 4B 81 3F 80 39 00 81 43 90 4A 45 00 90 4F 45 00 90 52 45 00 90 56 45 00 80 1D 00 00 80 29 00 00 80 29 00 00 90 1F 4D 00 90 2B 4D 82 7F 90 32 40 81 3F 80 32 00 00 90 37 4F 81 12 90 2B 40 2D 80 37 00 00 90 39 51 81 43 80 39 00 00 90 3A 4F 81 3F 80 3A 00 00 90 3E 5B 81 40 80 3E 00 00 90 43 57 61 80 2B 00 00 90 2B 47 5E 80 43 00 00 90 45 4E 81 3F 80 45 00 00 90 46 4F 81 43 80 46 00 00 90 4A 54 00 80 2B 00 00 90 32 5A 00 90 37 5A 00 90 3A 5A 81 1E 80 4A 00 00 90 3E 39 81 21 80 3E 00 00 90 43 55 81 21 80 43 00 00 90 45 51 81 1E 80 45 00 00 90 46 4F 52 80 32 00 00 80 37 00 00 80 3A 00 00 90 2B 42 4F 80 46 00 00 90 4A 56 81 21 80 4A 00 00 90 4F 3D 81 1E 80 4F 00 00 90 51 4B 81 21 80 51 00 00 90 52 52 81 21 80 52 00 00 90 56 57 00 80 2B 00 00 90 2B 49 81 1E 80 56 00 00 90 5B 5C 81 21 80 5B 00 00 90 5D 50 81 21 80 4A 00 00 80 4F 00 00 80 52 00 00 80 56 00 00 80 5D 00 00 90 60 53 00 80 1F 00 00 80 2B 00 00 80 2B 00 00 90 1A 4C 00 90 26 4C 81 3F 80 60 00 00 90 62 51 81 40 80 62 00 00 90 60 4A 81 3F 80 60 00 00 90 5E 45 81 12 90 26 48 2D 80 5E 00 00 90 59 42 81 43 80 59 00 00 90 54 6C 81 3F 80 54 00 00 90 56 53 81 40 80 56 00 00 90 54 4C 61 80 26 00 00 90 26 4C 5E 80 54 00 00 90 52 49 81 3F 80 52 00 00 90 4D 43 81 43 80 4D 00 00 90 54 6E 00 80 26 00 00 90 35 5C 00 90 39 5C 00 90 3C 5C 81 3F 80 54 00 00 90 52 48 81 40 80 52 00 00 90 51 49 81 3F 80 51 00 00 90 4D 48 81 12 80 35 00 00 80 39 00 00 80 3C 00 00 90 26 49 2D 80 4D 00 00 90 48 40 81 43 80 48 00 00 90 46 45 81 3F 80 46 00 00 90 45 4A 81 40 80 45 00 00 90 41 41 61 80 26 00 00 90 26 4B 5E 80 41 00 00 90 3C 48 81 3F 80 3C 00 81 43 90 56 45 00 80 1A 00 00 80 26 00 00 80 26 00 00 90 27 4F 81 70 90 4F 40 00 80 27 00 00 90 2E 53 81 70 80 4F 00 00 90 4A 42 00 80 2E 00 00 90 35 52 81 70 80 56 00 00 80 4A 00 00 90 52 41 00 80 35 00 00 90 37 51 81 70 90 4F 47 00 80 37 00 00 90 33 47 81 70 80 4F 00 00 90 4A 40 00 80 33 00 00 90 37 52 81 70 80 52 00 00 80 4A 00 00 90 4F 43 00 80 37 00 00 90 3A 52 81 70 90 4A 41 00 80 3A 00 00 90 3E 54 81 70 80 4F 00 00 80 4A 00 00 90 56 55 00 80 3E 00 00 90 27 42 81 70 90 4F 42 00 80 27 00 00 90 2E 51 81 70 80 4F 00 00 90 4A 3F 00 80 2E 00 00 90 35 58 81 70 80 56 00 00 80 4A 00 00 90 52 45 00 80 35 00 00 90 37 4D 81 70 90 4F 4C 00 80 37 00 00 90 33 4B 81 70 80 4F 00 00 90 4A 44 00 80 33 00 00 90 37 51 81 70 80 52 00 00 80 4A 00 00 90 4F 44 00 80 37 00 00 90 3A 4E 81 70 90 4A 45 00 80 3A 00 00 90 3E 53 81 70 80 4F 00 00 80 4A 00 00 90 54 57 00 80 3E 00 00 90 29 42 81 70 90 4D 45 00 80 29 00 00 90 30 52 81 70 80 4D 00 00 90 48 40 00 80 30 00 00 90 37 54 81 70 80 54 00 00 80 48 00 00 90 51 48 00 80 37 00 00 90 39 50 81 70 90 4D 4A 00 80 39 00 00 90 35 49 81 70 80 4D 00 00 90 48 43 00 80 35 00 00 90 39 4E 81 70 80 51 00 00 80 48 00 00 90 4D 45 00 80 39 00 00 90 3A 51 81 70 90 48 44 00 80 3A 00 00 90 3C 53 81 70 80 4D 00 00 80 48 00 00 90 54 55 00 80 3C 00 00 90 29 45 81 70 90 4D 42 00 80 29 00 00 90 30 56 81 70 80 4D 00 00 90 48 40 00 80 30 00 00 90 37 54 81 70 80 54 00 00 80 48 00 00 90 51 48 00 80 37 00 00 90 39 53 81 70 90 4D 48 00 80 39 00 00 90 35 4A 81 70 80 4D 00 00 90 48 3F 00 80 35 00 00 90 39 4E 81 70 80 51 00 00 80 48 00 00 90 4D 41 00 80 39 00 00 90 3A 4F 81 70 90 48 48 00 80 3A 00 00 90 3C 50 81 70 80 4D 00 00 80 48 00 00 90 5E 56 00 80 3C 00 00 90 2B 41 81 70 90 56 42 00 80 2B 00 00 90 32 52 81 70 80 56 00 00 90 52 42 00 80 32 00 00 90 37 53 81 70 80 5E 00 00 80 52 00 00 90 5E 4A 00 80 37 00 00 90 39 4C 81 70 90 56 3E 00 80 39 00 00 90 37 49 81 70 80 56 00 00 90 52 41 00 80 37 00 00 90 3A 50 81 70 80 5E 00 00 80 52 00 00 90 5E 4B 00 80 3A 00 00 90 3C 4A 81 70 90 52 39 00 80 3C 00 00 90 3E 4C 81 70 80 5E 00 00 80 52 00 00 90 5E 45 00 80 3E 00 00 90 2B 42 81 70 90 56 3C 00 80 2B 00 00 90 32 53 81 70 80 56 00 00 90 52 40 00 80 32 00 00 90 37 51 81 70 80 5E 00 00 80 52 00 00 90 5D 4C 00 80 37 00 00 90 39 4C 81 70 90 56 40 00 80 39 00 00 90 37 4D 81 70 80 56 00 00 90 52 42 00 80 37 00 00 90 3A 53 81 70 80 5D 00 00 80 52 00 00 90 59 48 00 80 3A 00 00 90 3C 56 81 70 90 52 40 00 80 3C 00 00 90 3E 51 81 70 80 59 00 00 80 52 00 00 90 56 5B 00 80 3E 00 00 90 26 46 81 70 90 4D 40 00 80 26 00 00 90 2D 4C 81 70 80 4D 00 00 90 4A 3F 00 80 2D 00 00 90 32 55 81 70 80 56 00 00 80 4A 00 00 90 56 51 00 80 32 00 00 90 35 4D 81 70 90 4D 44 00 80 35 00 00 90 32 4D 81 70 80 4D 00 00 90 4A 48 00 80 32 00 00 90 35 50 81 70 80 56 00 00 80 4A 00 00 90 56 4F 00 80 35 00 00 90 39 4F 81 70 90 4A 3B 00 80 39 00 00 90 3E 57 81 70 80 56 00 00 80 4A 00 00 90 56 4C 00 80 3E 00 00 90 26 48 81 70 90 4D 42 00 80 26 00 00 90 2D 55 81 70 80 4D 00 00 90 4A 42 00 80 2D 00 00 90 32 4C 81 70 80 56 00 00 80 4A 00 00 90 54 48 00 80 32 00 00 90 35 52 81 70 90 4D 3F 00 80 35 00 00 90 32 48 81 70 80 4D 00 00 90 4A 45 00 80 32 00 00 90 39 54 81 70 80 54 00 00 80 4A 00 00 90 56 51 00 80 39 00 00 90 3E 57 83 60 80 56 00 00 90 52 38 00 90 56 38 00 80 3E 00 00 90 1B 50 00 90 27 50 5E 80 52 00 00 80 56 00 1A 90 5E 38 5E 80 5E 00 1A 90 52 38 00 90 56 38 5E 80 52 00 00 80 56 00 1A 90 5E 38 5E 80 5E 00 1A 90 52 38 00 90 56 38 00 90 27 45 00 90 33 45 5E 80 52 00 00 80 56 00 1A 90 5E 38 5E 80 5E 00 1A 90 52 38 00 90 56 38 5E 80 52 00 00 80 56 00 1A 90 5E 38 5E 80 5E 00 1A 90 52 38 00 90 56 38 00 80 27 00 00 80 33 00 00 90 27 47 00 90 33 47 5E 80 52 00 00 80 56 00 1A 90 5E 38 5E 80 5E 00 1A 90 52 38 00 90 56 38 5E 80 52 00 00 80 56 00 1A 90 5E 38 5E 80 5E 00 1A 90 52 38 00 90 56 38 00 80 27 00 00 80 33 00 00 90 27 4F 00 90 33 4F 5E 80 52 00 00 80 56 00 1A 90 5E 38 5E 80 5E 00 1A 90 52 38 00 90 56 38 5E 80 52 00 00 80 56 00 1A 90 5E 38 5E 80 5E 00 1A 90 5E 4C 00 80 27 00 00 80 33 00 00 90 27 4D 00 90 33 4D 78 80 5E 00 00 90 57 43 78 80 57 00 00 90 56 46 78 80 56 00 00 90 46 41 78 80 46 00 00 90 52 60 78 80 52 00 00 90 4B 41 78 80 4B 00 00 90 4A 4A 78 80 4A 00 00 90 46 44 78 80 46 00 00 90 46 4E 78 80 46 00 00 90 3F 3F 78 80 3F 00 00 90 3E 42 78 80 3E 00 00 90 3A 4B 78 80 3A 00 00 90 3A 47 78 80 3A 00 00 90 33 46 78 80 33 00 00 90 32 4C 78 80 32 00 00 90 2E 4B 78 80 2E 00 00 90 52 60 00 90 56 60 00 80 1B 00 00 80 27 00 00 80 27 00 00 80 33 00 00 90 1D 4B 00 90 29 4B 5E 80 52 00 00 80 56 00 1A 90 5E 60 5E 80 5E 00 1A 90 52 60 00 90 56 60 5E 80 52 00 00 80 56 00 1A 90 5E 60 5E 80 5E 00 1A 90 52 60 00 90 56 60 00 90 29 47 00 90 35 47 5E 80 52 00 00 80 56 00 1A 90 5E 60 5E 80 5E 00 1A 90 52 60 00 90 56 60 5E 80 52 00 00 80 56 00 1A 90 5E 60 5E 80 5E 00 1A 90 52 60 00 90 56 60 00 80 29 00 00 80 35 00 00 90 29 4C 00 90 35 4C 5E 80 52 00 00 80 56 00 1A 90 5E 60 5E 80 5E 00 1A 90 52 60 00 90 56 60 5E 80 52 00 00 80 56 00 1A 90 5E 60 5E 80 5E 00 1A 90 52 60 00 90 56 60 00 80 29 00 00 80 35 00 00 90 29 4B 00 90 35 4B 5E 80 52 00 00 80 56 00 1A 90 5E 60 5E 80 5E 00 1A 90 52 60 00 90 56 60 5E 80 52 00 00 80 56 00 1A 90 5E 60 5E 80 5E 00 1A 90 5E 4E 00 80 29 00 00 80 35 00 00 90 29 48 00 90 35 48 78 80 5E 00 00 90 57 3D 78 80 57 00 00 90 56 4B 78 80 56 00 00 90 52 43 78 80 52 00 00 90 52 62 78 80 52 00 00 90 4B 45 78 80 4B 00 00 90 4A 47 78 80 4A 00 00 90 46 49 78 80 46 00 00 90 46 4C 78 80 46 00 00 90 3F 3D 78 80 3F 00 00 90 3E 4A 78 80 3E 00 00 90 3A 43 78 80 3A 00 00 90 3A 49 78 80 3A 00 00 90 33 43 78 80 33 00 00 90 32 45 78 80 32 00 00 90 2E 45 78 80 2E 00 00 90 52 60 00 90 56 60 00 80 1D 00 00 80 29 00 00 80 29 00 00 80 35 00 00 90 1F 4D 00 90 2B 4D 5E 80 52 00 00 80 56 00 1A 90 5E 60 5E 80 5E 00 1A 90 52 60 00 90 56 60 5E 80 52 00 00 80 56 00 1A 90 5E 60 5E 80 5E 00 1A 90 52 60 00 90 56 60 00 90 2B 40 00 90 37 40 5E 80 52 00 00 80 56 00 1A 90 5E 60 5E 80 5E 00 1A 90 52 60 00 90 56 60 5E 80 52 00 00 80 56 00 1A 90 5E 60 5E 80 5E 00 1A 90 52 60 00 90 56 60 00 80 2B 00 00 80 37 00 00 90 2B 4C 00 90 37 4C 5E 80 52 00 00 80 56 00 1A 90 5E 60 5E 80 5E 00 1A 90 52 60 00 90 56 60 5E 80 52 00 00 80 56 00 1A 90 5E 60 5E 80 5E 00 1A 90 52 60 00 90 56 60 00 80 2B 00 00 80 37 00 00 90 2B 4A 00 90 37 4A 5E 80 52 00 00 80 56 00 1A 90 5E 60 5E 80 5E 00 1A 90 52 60 00 90 56 60 5E 80 52 00 00 80 56 00 1A 90 5E 60 5E 80 5E 00 1A 90 5E 50 00 80 2B 00 00 80 37 00 00 90 2B 4B 00 90 37 4B 78 80 5E 00 00 90 57 3E 78 80 57 00 00 90 56 43 78 80 56 00 00 90 52 44 78 80 52 00 00 90 52 61 78 80 52 00 00 90 4B 3F 78 80 4B 00 00 90 4A 46 78 80 4A 00 00 90 46 44 78 80 46 00 00 90 46 51 78 80 46 00 00 90 3F 3E 78 80 3F 00 00 90 3E 4B 78 80 3E 00 00 90 3A 48 78 80 3A 00 00 90 3A 4B 78 80 3A 00 00 90 33 46 78 80 33 00 00 90 32 4A 78 80 32 00 00 90 2E 4D 78 80 2E 00 00 90 54 60 00 90 59 60 00 80 1F 00 00 80 2B 00 00 80 2B 00 00 80 37 00 00 90 1A 42 00 90 26 42 5E 80 54 00 00 80 59 00 1A 90 60 60 5E 80 60 00 1A 90 54 60 00 90 59 60 5E 80 54 00 00 80 59 00 1A 90 60 60 5E 80 60 00 1A 90 54 60 00 90 59 60 00 90 26 42 00 90 32 42 5E 80 54 00 00 80 59 00 1A 90 60 60 5E 80 60 00 1A 90 54 60 00 90 59 60 5E 80 54 00 00 80 59 00 1A 90 60 60 5E 80 60 00 1A 90 54 60 00 90 59 60 00 80 26 00 00 80 32 00 00 90 26 4A 00 90 32 4A 5E 80 54 00 00 80 59 00 1A 90 60 60 5E 80 60 00 1A 90 54 60 00 90 59 60 5E 80 54 00 00 80 59 00 1A 90 60 60 5E 80 60 00 1A 90 54 60 00 90 59 60 00 80 26 00 00 80 32 00 00 90 26 50 00 90 32 50 5E 80 54 00 00 80 59 00 1A 90 60 60 5E 80 60 00 1A 90 54 60 00 90 59 60 5E 80 54 00 00 80 59 00 1A 90 60 60 5E 80 60 00 1A 90 60 50 00 80 26 00 00 80 32 00 00 90 26 4C 00 90 32 4C 78 80 60 00 00 90 5E 4C 78 80 5E 00 00 90 59 45 78 80 59 00 00 90 54 41 78 80 54 00 00 90 54 5F 78 80 54 00 00 90 52 48 78 80 52 00 00 90 4D 43 78 80 4D 00 00 90 48 3D 78 80 48 00 00 90 48 47 78 80 48 00 00 90 46 4A 78 80 46 00 00 90 41 3B 78 80 41 00 00 90 3C 40 78 80 3C 00 00 90 3C 46 00 90 41 40 78 80 3C 00 00 90 3A 4B 78 80 3A 00 00 90 35 49 78 80 35 00 00 90 30 45 78 80 41 00 00 80 30 00 00 90 41 65 00 80 1A 00 00 80 26 00 00 80 26 00 00 80 32 00 00 90 2B 50 81 70 90 37 42 81 70 80 41 00 00 90 3E 45 00 80 37 00 00 90 35 49 81 70 80 3E 00 00 90 3E 4E 00 80 35 00 00 90 37 4F 81 70 80 3E 00 00 80 2B 00 00 80 37 00 00 90 32 46 81 70 80 32 00 00 90 35 4F 81 70 90 3E 43 00 90 45 45 00 80 35 00 00 90 37 4D 81 70 80 37 00 00 90 39 4F 81 70 80 3E 00 00 80 45 00 00 90 3C 48 00 90 46 4E 00 80 39 00 00 90 3A 4E 81 70 80 3A 00 00 90 37 49 81 70 80 3C 00 00 80 46 00 00 90 3E 50 00 90 45 44 00 80 37 00 00 90 35 47 81 70 80 3E 00 00 80 45 00 00 90 3E 51 00 90 45 4B 00 80 35 00 00 90 37 49 81 70 80 3E 00 00 80 45 00 00 80 37 00 00 90 32 4C 81 70 80 32 00 00 90 37 52 81 70 90 41 41 00 80 37 00 00 90 35 4D 81 70 80 35 00 00 90 37 4B 81 70 80 41 00 00 90 41 4A 00 80 37 00 00 90 27 46 81 70 90 37 44 81 70 80 41 00 00 90 3E 43 00 80 37 00 00 90 35 48 81 70 80 3E 00 00 90 3E 4B 00 80 35 00 00 90 37 4B 81 70 80 3E 00 00 80 27 00 00 80 37 00 00 90 32 46 81 70 80 32 00 00 90 35 50 81 70 90 3E 46 00 90 45 43 00 80 35 00 00 90 37 51 81 70 80 37 00 00 90 39 4F 81 70 80 3E 00 00 80 45 00 00 90 3C 45 00 90 46 50 00 80 39 00 00 90 3A 4C 81 70 80 3A 00 00 90 37 45 81 70 80 3C 00 00 80 46 00 00 90 3E 4C 00 90 45 4B 00 80 37 00 00 90 35 4A 81 70 80 3E 00 00 80 45 00 00 90 3E 49 00 90 45 4B 00 80 35 00 00 90 37 51 81 70 80 3E 00 00 80 45 00 00 80 37 00 00 90 32 48 81 70 80 32 00 00 90 37 4C 81 70 90 41 49 00 80 37 00 00 90 35 4E 81 70 80 35 00 00 90 37 54 81 70 80 41 00 00 90 41 4B 00 80 37 00 00 90 29 42 81 70 90 37 44 81 70 80 41 00 00 90 3E 46 00 80 37 00 00 90 35 4B 81 70 80 3E 00 00 90 3E 4E 00 80 35 00 00 90 37 4D 81 70 80 3E 00 00 80 29 00 00 80 37 00 00 90 32 47 81 70 80 32 00 00 90 35 4D 81 70 90 3E 40 00 90 45 40 00 80 35 00 00 90 37 50 81 70 80 37 00 00 90 39 4D 81 70 80 3E 00 00 80 45 00 00 90 3C 48 00 90 46 4E 00 80 39 00 00 90 3A 50 81 70 80 3A 00 00 90 37 4C 81 70 80 3C 00 00 80 46 00 00 90 3E 51 00 90 45 47 00 80 37 00 00 90 35 4E 81 70 80 3E 00 00 80 45 00 00 90 3E 4D 00 90 45 51 00 80 35 00 00 90 37 4A 81 70 80 3E 00 00 80 45 00 00 80 37 00 00 90 32 46 81 70 80 32 00 00 90 37 52 81 70 90 41 45 00 80 37 00 00 90 35 4E 81 70 80 35 00 00 90 37 4C 81 70 80 41 00 00 90 41 4C 00 80 37 00 00 90 2B 42 81 70 90 37 46 81 70 80 41 00 00 90 3E 46 00 80 37 00 00 90 35 4C 81 70 80 3E 00 00 90 3E 4D 00 80 35 00 00 90 37 53 81 70 80 3E 00 00 80 2B 00 00 80 37 00 00 90 32 4B 81 70 80 32 00 00 90 35 50 81 70 90 3E 47 00 90 45 47 00 80 35 00 00 90 37 4B 81 70 80 37 00 00 90 39 4E 81 70 80 3E 00 00 80 45 00 00 90 3C 48 00 90 46 50 00 80 39 00 00 90 3A 50 81 70 80 3A 00 00 90 37 48 81 70 80 3C 00 00 80 46 00 00 90 3E 4C 00 90 45 49 00 80 37 00 00 90 35 4B 81 70 80 3E 00 00 80 45 00 00 90 3E 4B 00 90 45 4C 00 80 35 00 00 90 37 52 81 70 80 3E 00 00 80 45 00 00 80 37 00 00 90 32 4B 81 70 80 32 00 00 90 37 4D 81 70 90 41 44 00 80 37 00 00 90 35 50 81 70 80 35 00 00 90 37 4D 81 70 80 41 00 00 90 3E 4A 00 90 41 4A 00 90 4A 44 00 80 37 00 00 90 2B 43 81 70 80 4A 00 00 90 45 42 00 90 37 41 81 70 80 3E 00 00 80 41 00 00 80 45 00 00 90 3E 43 00 90 46 4E 00 80 37 00 00 90 3A 50 81 70 80 3E 00 00 80 46 00 00 90 3E 4D 00 90 41 41 00 80 3A 00 00 90 3A 4B 81 70 80 3E 00 00 80 41 00 00 80 2B 00 00 80 3A 00 00 90 37 4B 81 70 80 37 00 00 90 39 51 81 70 90 3E 46 00 90 4A 48 00 80 39 00 00 90 3A 51 81 70 80 4A 00 00 90 45 40 00 80 3A 00 00 90 37 4B 81 70 80 3E 00 00 80 45 00 00 90 3C 4B 00 90 46 4C 00 80 37 00 00 90 39 4D 81 70 80 46 00 00 90 41 44 00 80 39 00 00 90 37 45 81 70 80 3C 00 00 80 41 00 00 90 3E 52 00 80 37 00 00 90 3A 51 81 70 80 3E 00 00 90 3E 4D 00 80 3A 00 00 90 3A 47 81 70 80 3E 00 00 90 4A 42 00 80 3A 00 00 90 37 46 81 70 80 4A 00 00 90 45 43 00 80 37 00 00 90 39 54 81 70 80 45 00 00 90 41 42 00 90 46 4F 00 80 39 00 00 90 3E 54 81 70 80 3E 00 00 90 37 47 81 70 80 41 00 00 80 46 00 00 90 3E 4A 00 90 41 4A 00 90 4A 53 00 80 37 00 00 90 27 43 81 70 80 4A 00 00 90 45 46 00 90 33 47 81 70 80 3E 00 00 80 41 00 00 80 45 00 00 90 3E 4A 00 90 46 4F 00 80 33 00 00 90 3A 51 81 70 80 3E 00 00 80 46 00 00 90 3E 4B 00 90 41 3C 00 80 3A 00 00 90 3A 52 81 70 80 3E 00 00 80 41 00 00 80 27 00 00 80 3A 00 00 90 37 43 81 70 80 37 00 00 90 39 50 81 70 90 3E 46 00 90 4A 43 00 80 39 00 00 90 3A 50 81 70 80 4A 00 00 90 45 3E 00 80 3A 00 00 90 37 46 81 70 80 3E 00 00 80 45 00 00 90 3C 4B 00 90 46 4F 00 80 37 00 00 90 39 52 81 70 80 46 00 00 90 41 42 00 80 39 00 00 90 37 48 81 70 80 3C 00 00 80 41 00 00 90 3E 50 00 80 37 00 00 90 3A 54 81 70 80 3E 00 00 90 3E 50 00 80 3A 00 00 90 3A 48 81 70 80 3E 00 00 90 4A 45 00 80 3A 00 00 90 37 46 81 70 80 4A 00 00 90 45 40 00 80 37 00 00 90 39 50 81 70 80 45 00 00 90 41 46 00 90 46 4B 00 80 39 00 00 90 3E 55 81 70 80 3E 00 00 90 37 48 81 70 80 41 00 00 80 46 00 00 90 4A 5C 00 80 37 00 00 90 29 43 00 90 3E 43 00 90 41 43 81 70 80 4A 00 00 90 45 43 00 90 35 49 81 70 80 45 00 00 90 46 51 00 80 3E 00 00 80 41 00 00 80 35 00 00 90 3A 53 00 90 3E 44 81 70 80 46 00 00 90 41 3F 00 80 3A 00 00 80 3E 00 00 90 3A 4A 00 90 3E 4F 81 70 80 41 00 00 80 29 00 00 80 3A 00 00 80 3E 00 00 90 37 49 81 70 80 37 00 00 90 39 50 81 70 90 4A 44 00 80 39 00 00 90 3A 4C 00 90 3E 44 81 70 90 45 39 00 80 3A 00 00 90 37 49 81 70 80 4A 00 00 80 45 00 00 90 46 4B 00 90 48 47 00 80 3E 00 00 80 37 00 00 90 39 4B 00 90 3C 41 81 70 80 46 00 00 90 41 41 81 70 80 39 00 00 90 37 4A 81 70 80 48 00 00 90 4A 53 00 80 3C 00 00 90 3A 4F 00 90 3E 55 83 60 80 37 00 00 80 3A 00 00 90 2B 42 81 70 80 4A 00 00 90 3E 4C 00 90 41 4C 00 90 46 4C 00 90 4A 4C 00 80 3E 00 00 90 37 45 83 60 80 41 00 83 60 80 3E 00 00 80 41 00 00 80 46 00 00 80 4A 00 00 90 4B 63 00 90 57 63 83 60 80 4B 00 00 80 57 00 00 90 4A 43 00 90 56 43 83 60 80 2B 00 00 80 37 00 00 90 43 60 81 1E 90 45 6D 81 21 90 46 6E 81 21 80 4A 00 00 80 56 00 00 90 56 49 00 90 62 49 00 90 4A 79 87 40 80 56 00 00 80 62 00 00 90 54 47 00 90 60 47 87 40 80 54 00 00 80 60 00 00 90 62 50 00 80 43 00 00 80 45 00 00 80 46 00 00 80 4A 00 00 90 33 49 00 90 3A 49 00 90 3F 49 81 70 90 5B 3F 81 70 80 5B 00 00 90 57 41 81 70 80 62 00 00 80 57 00 00 90 60 4B 00 90 3F 41 81 70 90 5B 42 81 70 80 5B 00 00 90 57 44 81 70 80 60 00 00 80 57 00 00 90 60 51 00 80 3F 00 00 90 3F 4B 81 70 90 57 3E 81 70 80 60 00 00 80 57 00 00 90 60 4C 00 80 3F 00 00 90 46 5D 00 90 4B 5D 00 90 4F 5D 81 70 90 5B 44 81 70 80 5B 00 00 90 57 44 81 70 80 60 00 00 80 57 00 00 90 5E 4B 81 70 90 5B 46 81 70 80 5B 00 00 90 57 3F 81 70 80 5E 00 00 80 57 00 00 90 5E 4A 81 70 90 57 3C 81 70 80 5E 00 00 80 57 00 00 90 5D 47 00 80 33 00 00 80 3A 00 00 80 3F 00 00 80 46 00 00 80 4B 00 00 80 4F 00 00 90 35 4F 00 90 3C 4F 00 90 41 4F 81 70 90 59 43 81 70 80 59 00 00 90 54 40 81 70 80 5D 00 00 80 54 00 00 90 5E 4D 00 90 41 44 81 70 90 59 44 81 70 80 59 00 00 90 54 43 81 70 80 5E 00 00 80 54 00 00 90 5D 49 00 80 41 00 00 90 41 4F 81 70 90 54 3F 81 70 80 54 00 00 90 54 4C 00 80 41 00 00 90 48 61 00 90 4D 61 00 90 51 61 81 70 80 54 00 00 90 54 48 81 70 80 5D 00 00 80 54 00 00 90 59 46 81 70 90 54 42 81 70 80 54 00 00 90 54 46 81 70 80 54 00 00 90 54 4F 81 70 80 54 00 00 90 59 58 81 70 80 59 00 00 90 5D 57 81 70 80 59 00 00 80 5D 00 00 90 62 5B 00 80 35 00 00 80 3C 00 00 80 41 00 00 80 48 00 00 80 4D 00 00 80 51 00 00 90 37 4F 00 90 3E 4F 00 90 43 4F 81 70 90 5B 3E 81 70 80 5B 00 00 90 56 3F 81 70 80 62 00 00 80 56 00 00 90 60 4A 00 90 43 45 81 70 90 5B 4A 81 70 80 5B 00 00 90 56 42 81 70 80 60 00 00 80 56 00 00 90 60 50 00 80 43 00 00 90 43 47 81 70 90 56 3F 81 70 80 60 00 00 80 56 00 00 90 60 4E 00 80 43 00 00 90 4A 66 00 90 4F 66 00 90 52 66 81 70 90 5B 43 81 70 80 5B 00 00 90 56 41 81 70 80 60 00 00 80 56 00 00 90 5E 49 81 70 90 5B 4B 81 70 80 5B 00 00 90 56 41 81 70 80 5E 00 00 80 56 00 00 90 5E 4E 81 70 90 56 43 81 70 80 5E 00 00 80 56 00 00 90 5D 49 00 80 37 00 00 80 3E 00 00 80 43 00 00 80 4A 00 00 80 4F 00 00 80 52 00 00 90 32 3E 00 90 39 3E 00 90 3E 3E 81 70 90 59 48 81 70 80 59 00 00 90 56 47 81 70 80 5D 00 00 80 56 00 00 90 5E 4C 00 90 3E 46 81 70 90 59 45 81 70 80 59 00 00 90 56 44 81 70 80 5E 00 00 80 56 00 00 90 65 5B 00 80 3E 00 00 90 3E 49 81 70 90 56 3A 81 70 80 56 00 00 90 56 49 00 80 3E 00 00 90 4A 62 00 90 4D 62 00 90 51 62 81 70 80 56 00 00 90 56 4D 81 70 80 65 00 00 80 56 00 00 90 5D 40 81 70 90 56 41 81 70 80 56 00 00 90 56 48 81 70 80 56 00 00 90 56 4E 81 70 80 56 00 00 90 59 52 81 70 80 59 00 00 90 5E 59 81 70 80 5D 00 00 80 5E 00 00 90 67 5E 00 80 32 00 00 80 39 00 00 80 3E 00 00 80 4A 00 00 80 4D 00 00 80 51 00 00 90 33 4F 00 90 3A 4F 00 90 3F 4F 81 70 90 5E 3E 81 70 80 5E 00 00 90 5B 40 81 70 80 67 00 00 80 5B 00 00 90 65 49 00 90 3F 43 81 70 90 5E 42 81 70 80 5E 00 00 90 5B 46 81 70 80 65 00 00 80 5B 00 00 90 62 4A 00 80 3F 00 00 90 3F 49 81 70 90 57 3D 81 70 80 57 00 00 90 57 48 00 80 3F 00 00 90 46 62 00 90 4B 62 00 90 4F 62 81 70 80 57 00 00 90 57 49 81 70 80 62 00 00 80 57 00 00 90 5E 48 81 70 90 57 43 81 70 80 57 00 00 90 57 4B 81 70 80 57 00 00 90 57 4D 81 70 80 5E 00 00 80 57 00 00 90 5E 49 81 70 90 57 40 81 70 80 5E 00 00 80 57 00 00 90 5E 49 00 80 33 00 00 80 3A 00 00 80 3F 00 00 80 46 00 00 80 4B 00 00 80 4F 00 00 90 35 4F 00 90 3C 4F 00 90 41 4F 81 70 90 59 40 81 70 80 59 00 00 90 54 3A 81 70 80 54 00 00 90 54 4A 00 90 41 43 81 70 80 5E 00 00 80 54 00 00 90 5D 45 81 70 90 54 3C 81 70 80 5D 00 00 80 54 00 00 90 5B 48 00 80 41 00 00 90 41 4B 81 70 90 54 41 81 70 80 54 00 00 90 54 48 00 80 41 00 00 90 48 65 00 90 4D 65 00 90 51 65 81 70 80 54 00 00 90 54 4C 81 70 80 5B 00 00 80 54 00 00 90 5D 4F 81 70 90 54 3A 81 70 80 54 00 00 90 54 4A 81 70 80 54 00 00 90 54 4C 81 70 80 5D 00 00 80 54 00 00 90 5E 4C 00 90 52 5C 00 90 56 5C 83 60 80 35 00 00 80 3C 00 00 80 41 00 00 80 48 00 00 80 4D 00 00 80 51 00 00 90 37 39 00 90 3E 39 81 70 90 43 43 81 70 80 43 00 00 90 46 52 81 70 80 46 00 00 90 3E 3D 81 70 80 3E 00 00 90 43 56 81 70 80 43 00 00 90 46 51 81 70 80 46 00 00 90 3E 3C 81 70 80 3E 00 00 90 43 57 81 70 80 43 00 00 90 4A 54 81 70 80 4A 00 00 90 3E 3A 81 70 80 3E 00 00 90 43 55 81 70 80 43 00 00 90 46 54 81 70 80 5E 00 00 80 52 00 00 80 56 00 00 80 46 00 00 90 3E 3B 81 70 80 3E 00 00 90 43 54 81 70 90 52 42 00 80 43 00 00 90 46 52 81 70 80 46 00 00 90 3E 3E 81 70 80 52 00 00 90 4A 4A 00 90 4D 4A 00 90 51 4A 00 80 37 00 00 80 3E 00 00 80 3E 00 00 90 32 45 00 90 39 45 81 70 90 3E 47 81 70 80 3E 00 00 90 41 57 81 70 80 4A 00 00 80 4D 00 00 80 51 00 00 90 52 51 00 80 41 00 00 90 39 44 81 70 80 39 00 00 90 3E 56 81 70 80 3E 00 00 90 41 55 81 70 80 52 00 00 90 51 4C 00 80 41 00 00 90 39 4C 81 70 80 39 00 00 90 3E 53 81 70 80 3E 00 00 90 4A 61 81 70 80 4A 00 00 90 45 44 81 70 80 51 00 00 90 4D 44 00 80 45 00 00 90 41 40 81 70 80 41 00 00 90 3E 46 81 70 80 3E 00 00 90 39 45 81 70 80 39 00 00 90 35 48 81 70 80 4D 00 00 90 4A 44 00 80 35 00 00 90 32 48 83 60 80 4A 00 00 90 4B 5A 00 90 4F 5A 00 90 56 5A 00 80 32 00 00 80 39 00 00 80 32 00 00 90 33 4E 00 90 3A 4E 81 70 80 33 00 00 80 3A 00 00 90 3F 54 81 70 80 4B 00 00 80 4F 00 00 80 56 00 00 90 54 4C 00 80 3F 00 00 90 3F 4E 81 70 80 54 00 00 90 4B 4C 00 90 4F 4C 00 90 54 4C 00 80 3F 00 00 90 3F 4D 81 70 80 3F 00 00 90 43 5A 00 90 46 5A 81 70 80 43 00 00 80 46 00 00 90 3F 40 81 70 80 4B 00 00 80 4F 00 00 80 54 00 00 90 54 49 00 80 3F 00 00 90 3F 49 81 70 80 3F 00 00 90 3F 4B 81 70 80 54 00 00 90 4B 4E 00 90 4F 4E 00 90 54 4E 00 80 3F 00 00 90 33 4E 00 90 3A 4E 81 70 80 33 00 00 80 3A 00 00 90 3F 57 81 70 80 4B 00 00 80 4F 00 00 80 54 00 00 90 52 4B 00 80 3F 00 00 90 3F 51 81 70 80 52 00 00 90 4B 4C 00 90 4F 4C 00 90 52 4C 00 80 3F 00 00 90 3F 4F 81 70 80 3F 00 00 90 43 5E 00 90 46 5E 81 70 80 43 00 00 80 46 00 00 90 3F 3E 81 70 80 4B 00 00 80 4F 00 00 80 52 00 00 90 52 4D 00 80 3F 00 00 90 3F 4B 81 70 80 3F 00 00 90 3F 48 81 70 80 52 00 00 90 48 49 00 90 4D 49 00 90 51 49 00 80 3F 00 00 90 35 48 00 90 3C 48 81 70 80 35 00 00 80 3C 00 00 90 41 56 81 70 80 41 00 00 90 41 49 81 70 80 48 00 00 80 4D 00 00 80 51 00 00 90 52 4E 00 80 41 00 00 90 41 4A 81 70 80 41 00 00 90 45 5A 00 90 48 5A 81 70 80 45 00 00 80 48 00 00 90 41 3E 81 70 80 52 00 00 90 48 46 00 90 4D 46 00 90 51 46 00 80 41 00 00 90 41 4A 81 70 80 41 00 00 90 41 49 81 70 80 41 00 00 90 35 43 00 90 3C 43 81 70 80 35 00 00 80 3C 00 00 90 41 50 81 70 80 48 00 00 80 4D 00 00 80 51 00 00 90 4D 46 00 80 41 00 00 90 41 4E 81 70 80 41 00 00 90 41 4E 81 70 80 41 00 00 90 45 5C 00 90 48 5C 81 70 80 45 00 00 80 48 00 00 90 41 43 81 70 80 4D 00 00 90 4A 43 00 80 41 00 00 90 41 4B 81 70 80 41 00 00 90 41 4A 81 70 80 4A 00 00 90 4D 5E 00 90 52 5E 00 90 56 5E 00 80 41 00 00 90 37 44 00 90 3E 44 81 70 80 37 00 00 80 3E 00 00 90 43 59 81 70 80 4D 00 00 80 52 00 00 80 56 00 00 90 54 49 00 80 43 00 00 90 43 51 81 70 80 54 00 00 90 4D 4E 00 90 52 4E 00 90 54 4E 00 80 43 00 00 90 43 4F 81 70 80 43 00 00 90 46 5B 00 90 4A 5B 81 70 80 46 00 00 80 4A 00 00 90 43 3F 81 70 80 4D 00 00 80 52 00 00 80 54 00 00 90 54 4D 00 80 43 00 00 90 43 4E 81 70 80 43 00 00 90 43 4C 81 70 80 54 00 00 90 4D 4C 00 90 52 4C 00 90 54 4C 00 80 43 00 00 90 37 41 00 90 3E 41 81 70 80 37 00 00 80 3E 00 00 90 43 58 81 70 80 4D 00 00 80 52 00 00 80 54 00 00 90 52 44 00 80 43 00 00 90 43 4C 81 70 80 52 00 00 90 4D 50 00 90 52 50 00 80 43 00 00 90 43 51 81 70 80 43 00 00 90 46 55 00 90 4A 55 81 70 80 46 00 00 80 4A 00 00 90 43 45 81 70 80 4D 00 00 80 52 00 00 90 52 4C 00 80 43 00 00 90 43 49 81 70 80 43 00 00 90 43 4F 81 70 80 52 00 00 90 4A 48 00 90 4D 48 00 90 51 48 00 80 43 00 00 90 32 44 00 90 39 44 81 70 80 32 00 00 80 39 00 00 90 3E 51 81 70 80 3E 00 00 90 3E 4F 81 70 80 4A 00 00 80 4D 00 00 80 51 00 00 90 52 55 00 80 3E 00 00 90 3E 4B 81 70 80 3E 00 00 90 41 5C 00 90 45 5C 81 70 80 41 00 00 80 45 00 00 90 3E 3E 81 70 80 52 00 00 90 51 5E 00 90 56 5E 00 90 59 5E 00 80 3E 00 00 90 3E 47 81 70 80 3E 00 00 90 3E 49 81 70 80 3E 00 00 90 32 49 00 90 39 49 81 70 80 32 00 00 80 39 00 00 90 3E 58 81 70 80 51 00 00 80 56 00 00 80 59 00 00 90 51 3D 00 80 3E 00 00 90 3E 4B 81 70 80 3E 00 00 90 3E 49 81 70 80 3E 00 00 90 41 5A 00 90 45 5A 81 70 80 41 00 00 80 45 00 00 90 3E 41 81 70 80 51 00 00 90 52 4C 00 80 3E 00 00 90 3E 47 81 70 80 3E 00 00 90 3E 4C 81 70 80 52 00 00 90 52 5B 00 90 57 5B 00 90 5B 5B 00 80 3E 00 00 90 33 4C 00 90 3A 4C 81 70 80 33 00 00 80 3A 00 00 90 3F 58 81 70 80 3F 00 00 90 3F 50 81 70 80 52 00 00 80 57 00 00 80 5B 00 00 90 59 48 00 80 3F 00 00 90 3F 49 81 70 80 3F 00 00 90 43 5C 00 90 46 5C 81 70 80 43 00 00 80 46 00 00 90 3F 43 81 70 80 59 00 00 90 52 43 00 90 56 43 00 80 3F 00 00 90 3F 4B 81 70 80 3F 00 00 90 3F 48 81 70 80 3F 00 00 90 33 43 00 90 3A 43 81 70 80 33 00 00 80 3A 00 00 90 3F 57 81 70 80 52 00 00 80 56 00 00 90 4F 44 00 90 52 44 00 80 3F 00 00 90 3F 4F 81 70 80 3F 00 00 90 3F 4D 81 70 80 3F 00 00 90 43 5E 00 90 46 5E 81 70 80 43 00 00 80 46 00 00 90 3F 3F 81 70 80 4F 00 00 80 52 00 00 90 52 46 00 80 3F 00 00 90 3F 4D 81 70 80 3F 00 00 90 3F 4D 81 70 80 52 00 00 90 48 4E 00 90 4D 4E 00 90 52 4E 00 80 3F 00 00 90 35 47 81 70 80 35 00 00 90 3C 59 81 70 80 3C 00 00 90 41 57 81 70 80 41 00 00 90 43 51 81 70 80 48 00 00 80 4D 00 00 80 52 00 00 90 51 49 00 80 43 00 00 90 45 4D 81 70 80 45 00 00 90 48 55 81 70 80 51 00 00 90 4F 47 00 80 48 00 00 90 4D 5D 81 70 80 4D 00 00 90 48 48 81 70 80 48 00 00 90 45 43 81 70 80 45 00 00 90 43 49 81 70 80 4F 00 00 90 51 4F 00 80 43 00 00 90 41 47 81 70 80 41 00 00 90 3C 41 81 70 80 3C 00 00 90 35 45 83 60 80 51 00 00 90 46 50 00 90 4A 50 00 90 4F 50 00 90 52 50 83 60 80 35 00 00 90 27 48 00 90 33 48 81 70 90 3E 48 81 70 80 3E 00 00 90 43 55 81 70 80 43 00 00 90 46 55 00 90 33 48 81 70 80 46 00 00 90 3E 40 81 70 80 3E 00 00 90 43 56 81 70 80 43 00 00 90 46 55 00 80 33 00 00 90 33 4A 81 70 80 46 00 00 90 3E 40 81 70 80 3E 00 00 90 4A 6B 00 80 33 00 00 90 37 52 00 90 3A 52 81 70 80 4A 00 00 90 3E 3B 81 70 80 3E 00 00 90 43 53 81 70 80 43 00 00 90 46 55 81 70 80 46 00 00 90 3E 3D 81 70 80 3E 00 00 90 43 51 81 70 80 43 00 00 90 46 54 81 70 80 46 00 00 90 3E 3C 81 70 80 46 00 00 80 4A 00 00 80 4F 00 00 80 52 00 00 80 3E 00 00 90 48 42 00 80 27 00 00 80 33 00 00 80 37 00 00 80 3A 00 00 90 29 49 00 90 35 49 81 70 80 48 00 00 90 3C 37 81 70 80 3C 00 00 90 41 54 81 70 80 41 00 00 90 46 5B 00 90 35 45 81 70 80 46 00 00 90 3C 37 81 70 80 3C 00 00 90 41 53 81 70 80 41 00 00 90 46 59 00 80 35 00 00 90 35 4D 81 70 80 46 00 00 90 3C 3F 81 70 80 3C 00 00 90 48 66 00 80 35 00 00 90 39 59 00 90 3C 59 81 70 80 48 00 00 90 3C 3B 81 70 80 3C 00 00 90 41 4F 81 70 80 41 00 00 90 46 59 81 70 80 46 00 00 90 3C 41 81 70 80 3C 00 00 90 41 56 81 70 80 41 00 00 90 46 55 00 90 52 48 83 60 80 46 00 00 80 52 00 00 90 54 66 00 80 29 00 00 80 35 00 00 80 39 00 00 80 3C 00 00 90 2B 4E 00 90 37 4E 81 70 90 4D 3E 81 70 80 4D 00 00 90 4A 42 81 70 80 54 00 00 80 4A 00 00 90 52 4A 00 90 37 41 81 70 90 4D 43 81 70 80 4D 00 00 90 4A 42 81 70 80 52 00 00 80 4A 00 00 90 54 51 00 80 37 00 00 90 37 4E 81 70 90 4D 47 81 70 80 4D 00 00 90 4A 43 00 80 37 00 00 90 3A 5E 00 90 3E 5E 81 70 80 4A 00 00 90 4D 50 81 70 80 54 00 00 80 4D 00 00 90 52 4A 81 70 90 4D 40 81 70 80 4D 00 00 90 4A 45 81 70 80 4A 00 00 90 4D 52 81 70 80 52 00 00 80 4D 00 00 90 54 51 81 70 90 4D 46 81 70 80 4D 00 00 90 4A 43 00 80 2B 00 00 80 37 00 00 80 3A 00 00 80 3E 00 00 90 26 45 00 90 32 45 81 70 80 4A 00 00 90 4D 51 81 70 80 54 00 00 80 4D 00 00 90 56 52 81 70 90 4D 36 00 90 32 43 81 70 80 4D 00 00 90 4A 3F 81 70 80 4A 00 00 90 4D 4F 81 70 80 4D 00 00 90 4A 4A 00 80 32 00 00 90 32 4D 81 70 80 4A 00 00 90 4D 51 81 70 80 4D 00 00 90 4A 4A 00 80 32 00 00 90 35 62 00 90 39 62 00 90 3E 62 81 70 80 4A 00 00 90 4D 51 81 70 80 4D 00 00 90 4A 44 81 70 80 4A 00 00 90 4D 52 81 70 80 4D 00 00 90 4A 44 81 70 80 4A 00 00 90 4D 51 81 70 80 56 00 00 80 4D 00 00 90 52 44 83 60 80 52 00 00 90 52 5C 00 90 56 5C 00 90 5B 5C 00 80 26 00 00 80 32 00 00 80 35 00 00 80 39 00 00 80 3E 00 00 90 27 53 00 90 33 53 81 70 90 4F 45 81 70 80 4F 00 00 90 4F 4C 81 70 80 52 00 00 80 56 00 00 80 5B 00 00 80 4F 00 00 90 52 4D 00 90 56 4D 00 90 59 4D 00 90 33 45 81 70 90 4D 45 81 70 80 4D 00 00 90 4D 4B 81 70 80 52 00 00 80 56 00 00 80 59 00 00 80 4D 00 00 90 4D 44 00 90 52 44 00 90 56 44 00 80 33 00 00 90 33 4C 81 70 90 4A 43 81 70 80 4A 00 00 90 4A 4A 00 80 33 00 00 90 3A 60 00 90 3F 60 00 90 43 60 81 70 80 4A 00 00 90 4A 53 81 70 80 4D 00 00 80 52 00 00 80 56 00 00 80 4A 00 00 90 4A 45 00 90 4D 45 00 90 52 45 00 80 3A 00 00 80 3F 00 00 80 43 00 00 90 3F 47 81 70 90 46 44 00 80 3F 00 00 90 3A 48 81 70 80 46 00 00 90 46 4A 00 80 3A 00 00 90 37 45 81 70 80 46 00 00 90 46 4A 00 80 37 00 00 90 33 4C 81 70 80 4A 00 00 80 4D 00 00 80 52 00 00 80 46 00 00 90 4A 49 00 90 4D 49 00 90 52 49 00 80 33 00 00 90 2E 4F 81 70 80 2E 00 00 90 27 44 81 70 80 4A 00 00 80 4D 00 00 80 52 00 00 90 52 5F 00 90 56 5F 00 90 5B 5F 00 80 27 00 00 80 33 00 00 80 27 00 00 90 29 4B 00 90 35 4B 81 70 90 4F 46 81 70 80 4F 00 00 90 4F 4D 81 70 80 52 00 00 80 56 00 00 80 5B 00 00 80 4F 00 00 90 52 48 00 90 56 48 00 90 59 48 00 90 35 43 81 70 90 4D 45 81 70 80 4D 00 00 90 4D 49 81 70 80 52 00 00 80 56 00 00 80 59 00 00 80 4D 00 00 90 4D 43 00 90 52 43 00 90 56 43 00 80 35 00 00 90 35 48 81 70 90 4A 43 81 70 80 4A 00 00 90 4A 4A 00 80 35 00 00 90 3C 62 00 90 41 62 00 90 45 62 81 70 80 4A 00 00 90 4A 4D 81 70 80 4D 00 00 80 52 00 00 80 56 00 00 80 4A 00 00 90 4A 45 00 90 4D 45 00 90 52 45 00 80 3C 00 00 80 41 00 00 80 45 00 00 90 41 49 81 70 90 46 43 00 80 41 00 00 90 3C 41 81 70 80 46 00 00 90 46 47 00 80 3C 00 00 90 39 4B 81 70 80 46 00 00 90 46 4C 00 80 39 00 00 90 35 45 81 70 80 4A 00 00 80 4D 00 00 80 52 00 00 80 46 00 00 90 4A 4D 00 90 4D 4D 00 90 52 4D 00 80 35 00 00 90 30 44 81 70 80 30 00 00 90 29 44 81 70 80 4A 00 00 80 4D 00 00 80 52 00 00 90 52 5F 00 90 56 5F 00 90 5B 5F 00 80 29 00 00 80 35 00 00 80 29 00 00 90 2B 4E 00 90 37 4E 81 70 90 4F 45 81 70 80 4F 00 00 90 4F 4D 81 70 80 52 00 00 80 56 00 00 80 5B 00 00 80 4F 00 00 90 52 4A 00 90 56 4A 00 90 59 4A 00 90 37 49 81 70 90 4D 46 81 70 80 4D 00 00 90 4D 4C 81 70 80 52 00 00 80 56 00 00 80 59 00 00 80 4D 00 00 90 4D 42 00 90 52 42 00 90 56 42 00 80 37 00 00 90 37 46 81 70 90 4A 48 81 70 80 4A 00 00 90 4A 4A 00 80 37 00 00 90 3E 62 00 90 43 62 00 90 46 62 81 70 80 4A 00 00 90 4A 4D 81 70 80 4D 00 00 80 52 00 00 80 56 00 00 80 4A 00 00 90 4A 41 00 90 4D 41 00 90 52 41 00 80 3E 00 00 80 43 00 00 80 46 00 00 90 43 4A 81 70 90 46 43 00 80 43 00 00 90 3E 44 81 70 80 46 00 00 90 46 4B 00 80 3E 00 00 90 3A 45 81 70 80 46 00 00 90 46 4D 00 80 3A 00 00 90 37 48 81 70 80 4A 00 00 80 4D 00 00 80 52 00 00 80 46 00 00 90 4A 4F 00 90 4D 4F 00 90 52 4F 00 80 37 00 00 90 32 49 81 70 80 32 00 00 90 2B 42 81 70 80 4A 00 00 80 4D 00 00 80 52 00 00 90 52 5E 00 90 56 5E 00 90 5B 5E 00 80 2B 00 00 80 37 00 00 80 2B 00 00 90 26 46 00 90 32 46 81 70 90 4F 46 81 70 80 4F 00 00 90 4F 4B 81 70 80 52 00 00 80 56 00 00 80 5B 00 00 80 4F 00 00 90 52 48 00 90 56 48 00 90 59 48 00 90 32 43 81 70 90 4D 44 81 70 80 4D 00 00 90 4D 44 81 70 80 52 00 00 80 56 00 00 80 59 00 00 80 4D 00 00 90 4D 47 00 90 52 47 00 90 56 47 00 80 32 00 00 90 32 4D 81 70 90 4A 42 81 70 80 4A 00 00 90 4A 53 00 80 32 00 00 90 35 61 00 90 39 61 00 90 3E 61 81 70 80 4A 00 00 90 4A 4F 81 70 80 4D 00 00 80 52 00 00 80 56 00 00 80 4A 00 00 90 4A 41 00 90 4D 41 00 90 52 41 00 80 35 00 00 80 39 00 00 80 3E 00 00 90 3E 4D 81 70 80 3E 00 00 90 39 47 81 70 80 39 00 00 90 32 46 81 70 80 32 00 00 90 2D 46 81 70 80 4A 00 00 80 4D 00 00 80 52 00 00 90 3E 3E 00 90 4A 3E 00 80 2D 00 00 90 26 47 83 60 80 3E 00 00 80 4A 00 00 90 4A 58 00 90 4F 58 00 90 52 58 00 90 56 58 00 80 26 00 00 80 32 00 00 80 26 00 00 90 1B 42 00 90 27 42 83 60 90 3A 48 00 90 3F 48 00 90 43 48 81 70 80 4A 00 00 80 4F 00 00 80 52 00 00 80 56 00 00 90 48 47 00 90 4B 47 00 90 4F 47 00 90 54 47 81 70 80 3A 00 00 80 3F 00 00 80 43 00 00 90 27 40 00 90 33 40 83 60 80 48 00 00 80 4B 00 00 80 4F 00 00 80 54 00 00 90 48 49 00 90 4B 49 00 90 4F 49 00 90 54 49 00 80 27 00 00 80 33 00 00 90 3A 62 00 90 3F 62 00 90 43 62 83 60 80 48 00 00 80 4B 00 00 80 4F 00 00 80 54 00 00 90 48 4B 00 90 4B 4B 00 90 4F 4B 00 90 54 4B 00 80 3A 00 00 80 3F 00 00 80 43 00 00 90 27 47 00 90 33 47 83 60 80 27 00 00 80 33 00 00 90 3A 62 00 90 3F 62 00 90 43 62 81 70 80 48 00 00 80 4B 00 00 80 4F 00 00 80 54 00 00 90 46 45 00 90 4B 45 00 90 4F 45 00 90 52 45 81 70 80 3A 00 00 80 3F 00 00 80 43 00 00 90 27 43 00 90 33 43 83 60 80 46 00 00 80 4B 00 00 80 4F 00 00 80 52 00 00 90 46 4F 00 90 4B 4F 00 90 4F 4F 00 90 52 4F 00 80 27 00 00 80 33 00 00 90 3A 62 00 90 3F 62 00 90 43 62 83 60 80 46 00 00 80 4B 00 00 80 4F 00 00 80 52 00 00 90 45 4B 00 90 48 4B 00 90 4D 4B 00 90 51 4B 00 80 1B 00 00 80 27 00 00 80 3A 00 00 80 3F 00 00 80 43 00 00 90 1D 4C 00 90 29 4C 83 60 90 39 45 00 90 3C 45 00 90 41 45 81 70 80 45 00 00 80 48 00 00 80 4D 00 00 80 51 00 00 90 46 4F 00 90 52 4F 81 70 80 39 00 00 80 3C 00 00 80 41 00 00 90 29 3E 00 90 35 3E 83 60 80 46 00 00 80 52 00 00 90 45 47 00 90 48 47 00 90 4D 47 00 90 51 47 00 80 29 00 00 80 35 00 00 90 39 5E 00 90 3C 5E 00 90 41 5E 83 60 80 39 00 00 80 3C 00 00 80 41 00 00 90 29 47 00 90 35 47 83 60 80 45 00 00 80 48 00 00 80 4D 00 00 80 51 00 00 90 45 43 00 90 48 43 00 90 4D 43 00 80 29 00 00 80 35 00 00 90 39 5F 00 90 3C 5F 00 90 41 5F 83 60 80 39 00 00 80 3C 00 00 80 41 00 00 90 29 41 00 90 35 41 83 60 80 45 00 00 80 48 00 00 80 4D 00 00 90 4A 40 00 80 29 00 00 80 35 00 00 90 39 5F 00 90 3C 5F 00 90 41 5F 83 60 80 4A 00 00 90 4A 63 00 90 4F 63 00 90 52 63 00 90 56 63 00 80 1D 00 00 80 29 00 00 80 39 00 00 80 3C 00 00 80 41 00 00 90 1F 50 00 90 2B 50 83 60 90 3A 45 00 90 3E 45 00 90 43 45 81 70 80 4A 00 00 80 4F 00 00 80 52 00 00 80 56 00 00 90 48 4D 00 90 4D 4D 00 90 51 4D 00 90 54 4D 81 70 80 3A 00 00 80 3E 00 00 80 43 00 00 90 2B 3F 00 90 37 3F 83 60 80 48 00 00 80 4D 00 00 80 51 00 00 80 54 00 00 90 48 4A 00 90 4D 4A 00 90 51 4A 00 90 54 4A 00 80 2B 00 00 80 37 00 00 90 3A 5E 00 90 3E 5E 00 90 43 5E 83 60 80 48 00 00 80 4D 00 00 80 51 00 00 80 54 00 00 90 48 50 00 90 4D 50 00 90 51 50 00 90 54 50 00 80 3A 00 00 80 3E 00 00 80 43 00 00 90 2B 49 00 90 37 49 83 60 80 2B 00 00 80 37 00 00 90 3A 5E 00 90 3E 5E 00 90 43 5E 81 70 80 48 00 00 80 4D 00 00 80 51 00 00 80 54 00 00 90 46 46 00 90 4A 46 00 90 4F 46 00 90 52 46 81 70 80 3A 00 00 80 3E 00 00 80 43 00 00 90 2B 45 00 90 37 45 83 60 80 46 00 00 80 4A 00 00 80 4F 00 00 80 52 00 00 90 46 48 00 90 4A 48 00 90 4F 48 00 90 52 48 00 80 2B 00 00 80 37 00 00 90 3A 60 00 90 3E 60 00 90 43 60 83 60 80 46 00 00 80 4A 00 00 80 4F 00 00 80 52 00 00 90 45 48 00 90 4A 48 00 90 4D 48 00 90 51 48 00 80 1F 00 00 80 2B 00 00 80 3A 00 00 80 3E 00 00 80 43 00 00 90 1A 4A 00 90 26 4A 83 60 90 39 44 00 90 3E 44 00 90 41 44 81 70 80 45 00 00 80 4A 00 00 80 4D 00 00 80 51 00 00 90 46 52 00 90 52 52 81 70 80 39 00 00 80 3E 00 00 80 41 00 00 90 26 44 00 90 32 44 83 60 80 46 00 00 80 52 00 00 90 4D 5C 00 90 51 5C 00 90 56 5C 00 90 59 5C 00 80 26 00 00 80 32 00 00 90 39 5E 00 90 3E 5E 00 90 41 5E 83 60 80 39 00 00 80 3E 00 00 80 41 00 00 90 26 42 00 90 32 42 83 60 80 4D 00 00 80 51 00 00 80 56 00 00 80 59 00 00 90 45 39 00 90 4A 39 00 90 4D 39 00 90 51 39 00 80 26 00 00 80 32 00 00 90 39 60 00 90 3E 60 00 90 41 60 83 60 80 39 00 00 80 3E 00 00 80 41 00 00 90 26 48 00 90 32 48 83 60 80 45 00 00 80 4A 00 00 80 4D 00 00 80 51 00 00 90 46 49 00 90 52 49 00 80 26 00 00 80 32 00 00 90 39 60 00 90 3E 60 00 90 41 60 83 60 80 46 00 00 80 52 00 00 90 4F 5C 00 90 52 5C 00 90 57 5C 00 90 5B 5C 00 80 1A 00 00 80 26 00 00 80 39 00 00 80 3E 00 00 80 41 00 00 90 1B 50 00 90 27 50 83 60 90 27 43 00 90 2E 43 00 90 33 43 81 70 80 4F 00 00 80 52 00 00 80 57 00 00 80 5B 00 00 90 4D 4A 00 90 52 4A 00 90 56 4A 00 90 59 4A 81 70 80 27 00 00 80 2E 00 00 80 33 00 00 90 27 4E 00 90 2E 4E 00 90 33 4E 83 60 80 4D 00 00 80 52 00 00 80 56 00 00 80 59 00 00 90 4A 47 00 90 56 47 00 80 27 00 00 80 2E 00 00 80 33 00 00 90 27 4C 00 90 2E 4C 00 90 33 4C 83 60 80 4A 00 00 80 56 00 00 90 46 42 00 90 4A 42 00 90 4D 42 00 90 52 42 00 80 27 00 00 80 2E 00 00 80 33 00 00 90 3A 65 00 90 3F 65 00 90 43 65 87 40 80 3A 00 00 80 3F 00 00 80 43 00 00 90 27 45 00 90 33 45 83 60 80 46 00 00 80 4A 00 00 80 4D 00 00 80 52 00 00 90 46 4C 00 90 52 4C 83 60 80 46 00 00 80 52 00 00 90 46 4C 00 90 48 4C 00 90 4D 4C 00 90 52 4C 00 80 1B 00 00 80 27 00 00 80 27 00 00 80 33 00 00 90 1D 53 00 90 29 53 87 40 80 46 00 00 80 48 00 00 80 4D 00 00 80 52 00 00 90 45 44 00 90 51 44 83 60 80 45 00 00 80 51 00 00 90 43 46 00 90 48 46 00 90 4D 46 00 90 4F 46 00 90 39 46 00 90 3C 46 00 90 41 46 87 40 80 43 00 00 80 48 00 00 80 4D 00 00 80 4F 00 00 90 45 51 00 90 51 51 83 60 80 39 00 00 80 3C 00 00 80 41 00 00 90 29 40 00 90 35 40 83 60 80 45 00 00 80 51 00 00 90 46 51 00 90 4A 51 00 90 4F 51 00 90 52 51 83 60 80 1D 00 00 80 29 00 00 80 29 00 00 80 35 00 00 90 27 53 00 90 33 53 83 60 90 43 45 83 60 80 43 00 00 90 46 4F 83 60 80 46 00 00 90 4A 58 00 90 3A 47 00 90 3E 47 83 60 80 4A 00 00 90 43 3E 83 60 80 43 00 00 90 46 52 83 60 80 46 00 00 90 4A 51 00 80 3A 00 00 80 3E 00 00 90 3A 46 00 90 3E 46 83 60 80 4A 00 00 90 43 3E 83 60 80 46 00 00 80 4A 00 00 80 4F 00 00 80 52 00 00 80 43 00 00 90 48 3C 00 80 27 00 00 80 33 00 00 80 3A 00 00 80 3E 00 00 90 2B 51 00 90 37 51 83 60 80 48 00 00 90 43 3D 83 60 80 43 00 00 90 46 50 83 60 80 46 00 00 90 48 4F 00 90 3A 44 00 90 3E 44 83 60 80 48 00 00 90 43 44 83 60 80 43 00 00 90 46 52 83 60 80 46 00 00 90 48 53 00 80 3A 00 00 80 3E 00 00 90 3A 4E 00 90 3E 4E 83 60 80 48 00 00 90 43 43 83 60 80 43 00 00 90 48 53 00 80 2B 00 00 80 37 00 00 80 3A 00 00 80 3E 00 00 90 29 45 00 90 35 45 83 60 80 48 00 00 90 41 40 83 60 80 41 00 00 90 45 54 83 60 80 45 00 00 90 46 50 00 90 39 47 00 90 3C 47 83 60 80 46 00 00 90 41 44 83 60 80 41 00 00 90 45 55 83 60 80 45 00 00 90 46 50 00 80 39 00 00 80 3C 00 00 90 39 46 00 90 3C 46 83 60 80 46 00 00 90 41 3E 83 60 80 41 00 00 90 48 54 00 80 29 00 00 80 35 00 00 80 39 00 00 80 3C 00 00 90 2B 4D 00 90 37 4D 83 60 80 48 00 00 90 43 44 83 60 80 43 00 00 90 45 4F 83 60 80 45 00 00 90 48 54 00 90 3A 48 00 90 3E 48 83 60 80 48 00 00 90 43 3E 83 60 80 43 00 00 90 46 4F 83 60 80 46 00 00 90 4A 57 00 80 3A 00 00 80 3E 00 00 90 3A 4C 00 90 3E 4C 83 60 80 4A 00 00 90 52 46 83 60 80 52 00 00 90 4A 4E 00 90 4D 4E 00 90 54 4E 00 80 2B 00 00 80 37 00 00 80 3A 00 00 80 3E 00 00 90 33 42 83 60 80 33 00 00 90 3A 51 83 60 80 4A 00 00 80 4D 00 00 80 54 00 00 90 52 49 00 80 3A 00 00 90 43 5A 83 60 80 43 00 00 90 33 46 83 60 80 52 00 00 90 51 4D 00 80 33 00 00 90 3A 4E 83 60 90 43 43 00 80 3A 00 00 90 43 5C 83 60 80 43 00 00 90 46 53 00 80 43 00 00 90 33 49 83 60 80 46 00 00 90 4A 56 00 80 33 00 00 90 3A 56 83 60 80 51 00 00 80 4A 00 00 90 41 3B 00 80 3A 00 00 90 37 48 83 60 80 41 00 00 90 48 58 00 80 37 00 00 90 3E 5A 83 60 80 48 00 00 90 4A 52 00 80 3E 00 00 90 46 5C 83 60 80 4A 00 00 90 41 3B 00 80 46 00 00 90 37 49 83 60 80 41 00 00 90 48 58 00 80 37 00 00 90 3E 57 83 60 80 48 00 00 90 4A 54 00 80 3E 00 00 90 46 5F 83 60 80 4A 00 00 90 41 40 00 80 46 00 00 90 37 41 83 60 80 41 00 00 90 52 48 00 80 37 00 00 90 3E 5F 83 60 80 52 00 00 90 48 50 00 90 4D 50 00 90 54 50 00 80 3E 00 00 90 35 46 83 60 80 35 00 00 90 3C 56 83 60 80 48 00 00 80 4D 00 00 80 54 00 00 90 52 49 00 80 3C 00 00 90 45 5D 83 60 80 45 00 00 90 35 45 83 60 80 52 00 00 90 51 49 00 80 35 00 00 90 3C 5C 83 60 90 45 46 00 80 3C 00 00 90 45 62 83 60 80 45 00 00 90 46 53 00 80 45 00 00 90 35 48 83 60 80 46 00 00 90 48 53 00 80 35 00 00 90 3C 59 83 60 80 51 00 00 80 48 00 00 90 41 3E 00 80 3C 00 00 90 37 48 83 60 80 41 00 00 90 45 50 00 80 37 00 00 90 3E 56 83 60 80 45 00 00 90 46 4C 00 80 3E 00 00 90 43 59 83 60 80 46 00 00 90 41 44 00 80 43 00 00 90 37 41 83 60 80 41 00 00 90 45 54 00 80 37 00 00 90 3E 58 83 60 80 45 00 00 90 46 53 00 80 3E 00 00 90 43 5A 83 60 80 46 00 00 90 41 42 00 80 43 00 00 90 37 42 83 60 80 41 00 00 90 4A 43 00 80 37 00 00 90 3E 5A 83 60 80 4A 00 00 90 46 4C 00 90 4A 4C 00 80 3E 00 00 90 33 43 83 60 80 33 00 00 90 3A 50 83 60 80 46 00 00 80 4A 00 00 90 4A 49 00 80 3A 00 00 90 43 5F 83 60 80 4A 00 00 90 4A 4D 00 80 43 00 00 90 33 49 83 60 80 33 00 00 90 3A 51 83 60 80 4A 00 00 90 56 64 00 80 3A 00 00 90 43 63 83 60 80 56 00 00 90 56 4C 00 80 43 00 00 90 33 3F 83 60 80 33 00 00 90 3A 52 83 60 90 41 44 00 80 3A 00 00 90 37 48 83 60 80 41 00 00 90 48 5C 00 80 37 00 00 90 3E 58 83 60 80 48 00 00 90 4A 50 00 80 3E 00 00 90 46 5B 83 60 80 4A 00 00 90 41 3A 00 80 46 00 00 90 37 43 83 60 80 56 00 00 80 41 00 00 90 48 58 00 80 37 00 00 90 3E 5A 83 60 80 48 00 00 90 4A 50 00 80 3E 00 00 90 46 59 83 60 80 4A 00 00 90 41 42 00 80 46 00 00 90 37 46 83 60 80 41 00 00 90 52 47 00 80 37 00 00 90 3E 57 83 60 80 52 00 00 90 51 47 00 80 3E 00 87 40 80 51 00 00 90 51 4E 83 60 80 51 00 00 90 51 4F 87 40 80 51 00 00 90 52 52 83 60 80 52 00 00 90 52 4E 87 40 80 52 00 00 90 62 57 00 90 37 46 81 70 90 5B 3D 00 90 3E 46 81 70 80 5B 00 00 90 56 3E 00 80 3E 00 00 90 43 4F 81 70 80 62 00 00 80 56 00 00 90 60 41 00 80 43 00 00 90 45 57 81 70 90 5B 49 00 80 45 00 00 90 43 48 81 70 80 5B 00 00 90 56 3C 00 80 43 00 00 90 45 52 81 70 80 60 00 00 80 56 00 00 90 5E 48 00 80 45 00 00 90 46 54 81 70 80 46 00 00 90 4A 53 81 70 80 4A 00 00 90 4F 5B 81 70 80 4F 00 00 90 52 57 81 70 80 52 00 00 90 51 49 81 70 80 51 00 00 90 52 4F 81 70 80 52 00 00 90 54 53 81 70 80 54 00 00 90 52 4A 81 70 80 52 00 00 90 51 49 81 70 80 51 00 00 90 52 4A 81 70 80 5E 00 00 90 62 53 00 80 37 00 00 80 52 00 00 90 37 4A 81 70 90 5B 3C 00 90 3E 47 81 70 80 5B 00 00 90 56 42 00 80 3E 00 00 90 43 55 81 70 80 62 00 00 80 56 00 00 90 60 45 00 80 43 00 00 90 45 58 81 70 90 5B 43 00 80 45 00 00 90 43 49 81 70 80 5B 00 00 90 56 3F 00 80 43 00 00 90 45 50 81 70 80 60 00 00 80 56 00 00 90 5E 45 00 80 45 00 00 90 46 51 81 70 80 46 00 00 90 4A 56 81 70 80 4A 00 00 90 4F 5B 81 70 80 4F 00 00 90 52 55 81 70 80 52 00 00 90 51 49 81 70 80 51 00 00 90 52 51 81 70 80 52 00 00 90 54 54 81 70 80 54 00 00 90 52 45 81 70 80 52 00 00 90 51 49 81 70 80 51 00 00 90 52 51 81 70 80 5E 00 CB 00 80 37 00 00 80 52 00 01 FF 2F 00